SplineFontDB: 3.2
FontName: MALDINISTYLE
FullName: MALDINI STYLE
FamilyName: MALDINI STYLE
Weight: Book
Version: 1.002;Fontself Maker 3.3.0
ItalicAngle: 0
UnderlinePosition: -150
UnderlineWidth: 50
Ascent: 800
Descent: 200
InvalidEm: 0
sfntRevision: 0x00010000
LayerCount: 2
Layer: 0 1 "Back" 1
Layer: 1 1 "Fore" 0
XUID: [1021 764 1517046218 23077]
StyleMap: 0x0000
FSType: 0
OS2Version: 4
OS2_WeightWidthSlopeOnly: 0
OS2_UseTypoMetrics: 0
CreationTime: 1566539643
ModificationTime: 1676247300
PfmFamily: 81
TTFWeight: 400
TTFWidth: 5
LineGap: 0
VLineGap: 0
Panose: 0 0 0 0 0 0 0 0 0 0
OS2TypoAscent: 750
OS2TypoAOffset: 0
OS2TypoDescent: -200
OS2TypoDOffset: 0
OS2TypoLinegap: 0
OS2WinAscent: 703
OS2WinAOffset: 0
OS2WinDescent: 194
OS2WinDOffset: 0
HheadAscent: 750
HheadAOffset: 0
HheadDescent: -200
HheadDOffset: 0
OS2SubXSize: 650
OS2SubYSize: 699
OS2SubXOff: 0
OS2SubYOff: 140
OS2SupXSize: 650
OS2SupYSize: 699
OS2SupXOff: 0
OS2SupYOff: 479
OS2StrikeYSize: 49
OS2StrikeYPos: 258
OS2CapHeight: 700
OS2XHeight: 420
OS2Vendor: 'XXXX'
OS2CodePages: 00000003.00000000
OS2UnicodeRanges: 00000007.00000000.00000000.00000000
Lookup: 258 0 0 "'kern' Horizontal Kerning in Latin lookup 0" { "'kern' Horizontal Kerning in Latin lookup 0 subtable"  } ['kern' ('DFLT' <'dflt' > 'latn' <'dflt' > ) ]
DEI: 91125
ShortTable: maxp 16
  1
  0
  72
  78
  6
  0
  0
  2
  0
  1
  1
  0
  64
  0
  0
  0
EndShort
LangName: 1033 "" "" "Regular" "1.002;MALDINISTYLE" "" "Version 1.002;Fontself Maker 3.3.0" "" "" "" "EKNOJI KOJI" "" "" "" "" "" "" "MALDINI" "STYLE" "" "" "" "MALDINI" "STYLE"
GaspTable: 1 65535 2 0
Encoding: UnicodeBmp
UnicodeInterp: none
NameList: AGL For New Fonts
DisplaySize: -48
AntiAlias: 1
FitToEm: 0
WinInfo: 0 16 8
BeginChars: 65538 74

StartChar: .notdef
Encoding: 65536 -1 0
Width: 527
GlyphClass: 1
Flags: W
LayerCount: 2
Fore
SplineSet
50 700 m 1,0,-1
 477 700 l 1,1,-1
 477 0 l 1,2,-1
 50 0 l 1,3,-1
 50 700 l 1,0,-1
78 680 m 1,4,-1
 263 371 l 1,5,-1
 449 680 l 1,6,-1
 78 680 l 1,4,-1
251 350 m 1,7,-1
 71 650 l 1,8,-1
 71 49 l 1,9,-1
 251 350 l 1,7,-1
264 329 m 1,10,-1
 79 21 l 1,11,-1
 449 21 l 1,12,-1
 264 329 l 1,10,-1
276 350 m 1,13,-1
 457 47 l 1,14,-1
 457 652 l 1,15,-1
 276 350 l 1,13,-1
EndSplineSet
EndChar

StartChar: comma
Encoding: 44 44 6
Width: 105
GlyphClass: 2
Flags: W
LayerCount: 2
Fore
SplineSet
18 68 m 1,0,-1
 87 68 l 1,1,-1
 87 -52 l 1,2,-1
 45 -52 l 1,3,-1
 45 -35 l 2,4,5
 45 -23 45 -23 44.5 -17.5 c 128,-1,6
 44 -12 44 -12 40 -6.5 c 128,-1,7
 36 -1 36 -1 27 -1 c 2,8,-1
 18 -1 l 1,9,-1
 18 68 l 1,0,-1
66 -20 m 1,10,-1
 66 47 l 1,11,-1
 39 47 l 1,12,-1
 39 19 l 1,13,14
 48 16 48 16 55 9 c 0,15,16
 64 -1 64 -1 66 -20 c 1,10,-1
EndSplineSet
EndChar

StartChar: period
Encoding: 46 46 7
Width: 105
GlyphClass: 2
Flags: W
LayerCount: 2
Fore
SplineSet
18 68 m 1,0,-1
 87 68 l 1,1,-1
 87 -1 l 1,2,-1
 18 -1 l 1,3,-1
 18 68 l 1,0,-1
66 20 m 1,4,-1
 66 47 l 1,5,-1
 39 47 l 1,6,-1
 39 20 l 1,7,-1
 66 20 l 1,4,-1
EndSplineSet
EndChar

StartChar: zero
Encoding: 48 48 8
Width: 454
GlyphClass: 2
Flags: W
LayerCount: 2
Fore
SplineSet
227 699 m 128,-1,1
 313 699 313 699 374.5 637.5 c 128,-1,2
 436 576 436 576 436 490 c 2,3,-1
 436 210 l 2,4,5
 436 124 436 124 374.5 62.5 c 128,-1,6
 313 1 313 1 227 1 c 128,-1,7
 141 1 141 1 79.5 62.5 c 128,-1,8
 18 124 18 124 18 210 c 2,9,-1
 18 490 l 2,10,11
 18 576 18 576 79.5 637.5 c 128,-1,0
 141 699 141 699 227 699 c 128,-1,1
380 210 m 2,12,-1
 380 490 l 2,13,14
 380 553 380 553 335 598 c 128,-1,15
 290 643 290 643 227 643 c 128,-1,16
 164 643 164 643 119 598 c 128,-1,17
 74 553 74 553 74 490 c 2,18,-1
 74 210 l 2,19,20
 74 147 74 147 119 102 c 128,-1,21
 164 57 164 57 227 57 c 128,-1,22
 290 57 290 57 335 102 c 128,-1,23
 380 147 380 147 380 210 c 2,12,-1
227 615 m 128,-1,25
 279 615 279 615 315.5 578.5 c 128,-1,26
 352 542 352 542 352 490 c 2,27,-1
 352 210 l 2,28,29
 352 159 352 159 315.5 122 c 128,-1,30
 279 85 279 85 227 85 c 128,-1,31
 175 85 175 85 138.5 122 c 128,-1,32
 102 159 102 159 102 210 c 2,33,-1
 102 490 l 2,34,35
 102 542 102 542 138.5 578.5 c 128,-1,24
 175 615 175 615 227 615 c 128,-1,25
296 210 m 2,36,-1
 296 490 l 2,37,38
 296 518 296 518 276 538.5 c 128,-1,39
 256 559 256 559 227 559 c 128,-1,40
 198 559 198 559 178 538.5 c 128,-1,41
 158 518 158 518 158 490 c 2,42,-1
 158 210 l 2,43,44
 158 182 158 182 178 161.5 c 128,-1,45
 198 141 198 141 227 141 c 128,-1,46
 256 141 256 141 276 161.5 c 128,-1,47
 296 182 296 182 296 210 c 2,36,-1
EndSplineSet
EndChar

StartChar: one
Encoding: 49 49 9
Width: 257
GlyphClass: 2
Flags: W
LayerCount: 2
Fore
SplineSet
239 561 m 0,0,1
 240 558 240 558 239.5 528.5 c 128,-1,2
 239 499 239 499 239 492 c 2,3,-1
 239 1 l 1,4,-1
 99 1 l 1,5,-1
 99 560 l 1,6,-1
 18 560 l 1,7,-1
 18 700 l 1,8,-1
 111 700 l 1,9,-1
 111 699 l 1,10,11
 165 697 165 697 196 668 c 0,12,13
 221 646 221 646 229.5 621.5 c 128,-1,14
 238 597 238 597 239 561 c 0,0,1
183 492 m 2,15,16
 183 497 183 497 183.5 526 c 128,-1,17
 184 555 184 555 183 560 c 0,18,19
 183 585 183 585 178.5 599 c 128,-1,20
 174 613 174 613 159 627 c 0,21,22
 142 642 142 642 109 643 c 1,23,-1
 105 644 l 1,24,-1
 74 644 l 1,25,-1
 74 616 l 1,26,-1
 155 616 l 1,27,-1
 155 57 l 1,28,-1
 183 57 l 1,29,-1
 183 492 l 2,15,16
EndSplineSet
EndChar

StartChar: two
Encoding: 50 50 10
Width: 456
GlyphClass: 2
Flags: W
LayerCount: 2
Fore
SplineSet
313 700 m 2,0,1
 364 700 364 700 401 663 c 128,-1,2
 438 626 438 626 438 575 c 2,3,-1
 438 394 l 1,4,-1
 431 390 l 1,5,-1
 430 390 l 1,6,-1
 158 198 l 1,7,-1
 158 140 l 1,8,-1
 298 140 l 1,9,-1
 298 190 l 1,10,-1
 297 190 l 1,11,-1
 297 207 l 1,12,13
 297 207 297 207 297 229 c 1,14,15
 304 229 304 229 317 229 c 128,-1,16
 330 229 330 229 337 229 c 2,17,-1
 438 229 l 1,18,-1
 438 228 l 1,19,-1
 438 1 l 1,20,-1
 18 1 l 1,21,-1
 18 265 l 1,22,-1
 18 268 l 1,23,-1
 298 467 l 1,24,-1
 298 560 l 1,25,-1
 158 560 l 1,26,27
 158 545 158 545 158.5 516 c 128,-1,28
 159 487 159 487 159 472 c 1,29,30
 152 472 152 472 139 472 c 128,-1,31
 126 472 126 472 119 472 c 2,32,-1
 18 472 l 1,33,-1
 18 472 l 1,34,35
 18 489 18 489 18 523.5 c 128,-1,36
 18 558 18 558 18 575 c 0,37,38
 18 626 18 626 55 663 c 128,-1,39
 92 700 92 700 143 700 c 2,40,-1
 313 700 l 2,0,1
382 424 m 1,41,-1
 382 575 l 2,42,43
 382 603 382 603 361.5 623.5 c 128,-1,44
 341 644 341 644 313 644 c 2,45,-1
 143 644 l 2,46,47
 115 644 115 644 94.5 623.5 c 128,-1,48
 74 603 74 603 74 575 c 2,49,-1
 74 528 l 1,50,-1
 102 528 l 1,51,-1
 102 616 l 1,52,-1
 354 616 l 1,53,-1
 354 438 l 1,54,-1
 74 239 l 1,55,-1
 74 57 l 1,56,-1
 382 57 l 1,57,-1
 382 85 l 1,58,-1
 382 173 l 1,59,-1
 354 173 l 1,60,-1
 354 85 l 1,61,-1
 102 85 l 1,62,-1
 102 227 l 1,63,-1
 382 424 l 1,41,-1
EndSplineSet
EndChar

StartChar: three
Encoding: 51 51 11
Width: 455
GlyphClass: 2
Flags: W
LayerCount: 2
Fore
SplineSet
313 700 m 2,0,1
 364 700 364 700 400.5 663 c 128,-1,2
 437 626 437 626 437 575 c 2,3,-1
 437 126 l 2,4,5
 437 74 437 74 400.5 37.5 c 128,-1,6
 364 1 364 1 313 1 c 2,7,-1
 143 1 l 2,8,9
 91 1 91 1 54.5 37.5 c 128,-1,10
 18 74 18 74 18 126 c 0,11,12
 18 143 18 143 18 177 c 128,-1,13
 18 211 18 211 18 228 c 2,14,-1
 18 229 l 1,15,-1
 119 229 l 2,16,17
 126 229 126 229 139 229 c 128,-1,18
 152 229 152 229 158 229 c 1,19,20
 158 226 158 226 158.5 222 c 128,-1,21
 159 218 159 218 159 214.5 c 128,-1,22
 159 211 159 211 158 207 c 2,23,-1
 158 190 l 1,24,-1
 158 140 l 1,25,-1
 298 140 l 1,26,-1
 298 280 l 1,27,-1
 160 280 l 1,28,-1
 160 420 l 1,29,-1
 298 420 l 1,30,-1
 298 560 l 1,31,-1
 158 560 l 1,32,33
 158 545 158 545 158 516 c 128,-1,34
 158 487 158 487 158 472 c 1,35,36
 152 472 152 472 139 472 c 128,-1,37
 126 472 126 472 119 472 c 2,38,-1
 18 472 l 1,39,-1
 18 472 l 1,40,41
 18 489 18 489 18 523.5 c 128,-1,42
 18 558 18 558 18 575 c 0,43,44
 18 608 18 608 35 637 c 128,-1,45
 52 666 52 666 80.5 683 c 128,-1,46
 109 700 109 700 143 700 c 2,47,-1
 313 700 l 2,0,1
382 126 m 2,48,-1
 382 575 l 2,49,50
 382 593 382 593 372.5 609 c 128,-1,51
 363 625 363 625 347 634.5 c 128,-1,52
 331 644 331 644 313 644 c 2,53,-1
 143 644 l 2,54,55
 115 644 115 644 94.5 623.5 c 128,-1,56
 74 603 74 603 74 575 c 2,57,-1
 74 528 l 1,58,-1
 102 528 l 1,59,-1
 102 616 l 1,60,-1
 354 616 l 1,61,-1
 354 364 l 1,62,-1
 216 364 l 1,63,-1
 216 336 l 1,64,-1
 354 336 l 1,65,-1
 354 85 l 1,66,-1
 102 85 l 1,67,-1
 102 173 l 1,68,-1
 74 173 l 1,69,-1
 74 126 l 2,70,71
 74 107 74 107 83.5 91 c 128,-1,72
 93 75 93 75 108.5 66 c 128,-1,73
 124 57 124 57 143 57 c 2,74,-1
 313 57 l 2,75,76
 341 57 341 57 361.5 77 c 128,-1,77
 382 97 382 97 382 126 c 2,48,-1
EndSplineSet
EndChar

StartChar: four
Encoding: 52 52 12
Width: 455
GlyphClass: 2
Flags: W
LayerCount: 2
Fore
SplineSet
298 700 m 1,0,-1
 437 700 l 1,1,-1
 437 1 l 1,2,-1
 297 1 l 1,3,-1
 297 140 l 1,4,-1
 143 140 l 2,5,6
 91 140 91 140 54.5 177 c 128,-1,7
 18 214 18 214 18 265 c 2,8,-1
 18 700 l 1,9,-1
 158 700 l 1,10,-1
 158 280 l 1,11,-1
 297 280 l 1,12,-1
 297 700 l 1,13,-1
 298 700 l 1,0,-1
381 57 m 1,14,15
 381 468 381 468 381 644 c 1,16,-1
 353 644 l 1,17,-1
 353 224 l 1,18,-1
 102 224 l 1,19,-1
 102 280 l 1,20,-1
 102 644 l 1,21,-1
 74 644 l 1,22,-1
 74 265 l 2,23,24
 74 237 74 237 94 216.5 c 128,-1,25
 114 196 114 196 143 196 c 2,26,-1
 353 196 l 1,27,-1
 353 57 l 1,28,-1
 381 57 l 1,14,15
EndSplineSet
EndChar

StartChar: five
Encoding: 53 53 13
Width: 455
GlyphClass: 2
Flags: W
LayerCount: 2
Fore
SplineSet
437 700 m 1,0,-1
 437 560 l 2,1,2
 437 552 437 552 437 520.5 c 128,-1,3
 437 489 437 489 437 472 c 1,4,-1
 437 472 l 1,5,-1
 336 472 l 2,6,7
 330 472 330 472 316.5 472 c 128,-1,8
 303 472 303 472 297 472 c 1,9,10
 297 487 297 487 297.5 516 c 128,-1,11
 298 545 298 545 298 560 c 1,12,-1
 158 560 l 1,13,-1
 158 420 l 1,14,-1
 437 420 l 1,15,16
 437 376 437 376 437 288 c 128,-1,17
 437 200 437 200 437 155 c 2,18,-1
 437 126 l 2,19,20
 437 74 437 74 400.5 37.5 c 128,-1,21
 364 1 364 1 313 1 c 2,22,-1
 143 1 l 2,23,24
 91 1 91 1 54.5 37.5 c 128,-1,25
 18 74 18 74 18 126 c 0,26,27
 18 143 18 143 18 177 c 128,-1,28
 18 211 18 211 18 228 c 2,29,-1
 18 229 l 1,30,-1
 119 229 l 2,31,32
 126 229 126 229 139 229 c 128,-1,33
 152 229 152 229 158 229 c 1,34,-1
 158 207 l 1,35,-1
 158 190 l 1,36,-1
 158 140 l 1,37,-1
 298 140 l 1,38,-1
 298 280 l 1,39,-1
 19 280 l 1,40,-1
 19 384 l 1,41,-1
 18 384 l 1,42,-1
 18 700 l 1,43,-1
 437 700 l 1,0,-1
381 616 m 1,44,-1
 382 616 l 1,45,-1
 382 644 l 1,46,-1
 74 644 l 1,47,-1
 74 429 l 1,48,-1
 75 429 l 1,49,-1
 75 336 l 1,50,-1
 354 336 l 1,51,-1
 354 85 l 1,52,-1
 102 85 l 1,53,-1
 102 173 l 1,54,-1
 74 173 l 1,55,-1
 74 126 l 2,56,57
 74 97 74 97 94.5 77 c 128,-1,58
 115 57 115 57 143 57 c 2,59,-1
 313 57 l 2,60,61
 341 57 341 57 361.5 77 c 128,-1,62
 382 97 382 97 382 126 c 2,63,-1
 382 275 l 1,64,-1
 381 276 l 1,65,-1
 381 364 l 1,66,-1
 102 364 l 1,67,-1
 102 616 l 1,68,-1
 354 616 l 1,69,-1
 354 560 l 2,70,71
 354 547 354 547 353 528 c 1,72,-1
 381 528 l 1,73,-1
 382 528 l 1,74,75
 381 549 381 549 381 560 c 2,76,-1
 381 616 l 1,44,-1
EndSplineSet
EndChar

StartChar: six
Encoding: 54 54 14
Width: 455
GlyphClass: 2
Flags: W
LayerCount: 2
Fore
SplineSet
313 418 m 2,0,1
 364 418 364 418 400.5 381 c 128,-1,2
 437 344 437 344 437 293 c 2,3,-1
 437 126 l 2,4,5
 437 74 437 74 400.5 37.5 c 128,-1,6
 364 1 364 1 313 1 c 2,7,-1
 143 1 l 2,8,9
 91 1 91 1 54.5 37.5 c 128,-1,10
 18 74 18 74 18 126 c 0,11,12
 18 192 18 192 18 324.5 c 128,-1,13
 18 457 18 457 18 524 c 2,14,-1
 18 575 l 2,15,16
 18 608 18 608 35 637 c 128,-1,17
 52 666 52 666 80.5 683 c 128,-1,18
 109 700 109 700 143 700 c 2,19,-1
 299 700 l 1,20,-1
 299 560 l 1,21,-1
 158 560 l 1,22,-1
 158 418 l 1,23,-1
 313 418 l 2,0,1
382 125 m 2,24,-1
 382 297 l 1,25,-1
 381 300 l 1,26,27
 378 326 378 326 358.5 344 c 128,-1,28
 339 362 339 362 313 362 c 2,29,-1
 102 362 l 1,30,-1
 102 616 l 1,31,-1
 243 616 l 1,32,-1
 243 644 l 1,33,-1
 143 644 l 2,34,35
 115 644 115 644 94.5 623.5 c 128,-1,36
 74 603 74 603 74 575 c 0,37,38
 74 500 74 500 74 350 c 128,-1,39
 74 200 74 200 74 125 c 0,40,41
 74 97 74 97 94.5 77 c 128,-1,42
 115 57 115 57 143 57 c 2,43,-1
 313 57 l 2,44,45
 341 57 341 57 361.5 77 c 128,-1,46
 382 97 382 97 382 125 c 2,24,-1
102 85 m 1,47,-1
 102 334 l 1,48,-1
 354 334 l 1,49,-1
 354 85 l 1,50,-1
 102 85 l 1,47,-1
158 278 m 1,51,-1
 158 140 l 1,52,-1
 298 140 l 1,53,-1
 298 278 l 1,54,-1
 158 278 l 1,51,-1
EndSplineSet
EndChar

StartChar: seven
Encoding: 55 55 15
Width: 455
GlyphClass: 2
Flags: W
LayerCount: 2
Fore
SplineSet
313 698 m 1,0,-1
 437 698 l 1,1,-1
 437 419 l 1,2,-1
 437 418 l 1,3,-1
 298 173 l 1,4,-1
 298 -1 l 1,5,-1
 158 -1 l 1,6,-1
 158 180 l 1,7,-1
 160 183 l 1,8,-1
 298 422 l 1,9,-1
 298 559 l 1,10,-1
 158 559 l 1,11,12
 158 544 158 544 158 514.5 c 128,-1,13
 158 485 158 485 158 470 c 1,14,15
 152 470 152 470 139 470 c 128,-1,16
 126 470 126 470 119 470 c 2,17,-1
 18 470 l 1,18,-1
 18 471 l 1,19,-1
 18 698 l 1,20,-1
 313 698 l 1,0,-1
382 432 m 1,21,-1
 382 644 l 1,22,-1
 75 644 l 1,23,-1
 75 616 l 1,24,-1
 75 560 l 2,25,26
 75 554 75 554 75 543.5 c 128,-1,27
 75 533 75 533 75 528 c 1,28,-1
 75 528 l 1,29,-1
 103 528 l 1,30,31
 103 548 103 548 103 560 c 2,32,-1
 103 616 l 1,33,-1
 354 616 l 1,34,-1
 354 409 l 1,35,-1
 323 355 l 1,36,-1
 215 166 l 1,37,-1
 215 57 l 1,38,-1
 243 57 l 1,39,-1
 243 165 l 1,40,-1
 382 408 l 1,41,-1
 382 432 l 1,21,-1
EndSplineSet
EndChar

StartChar: eight
Encoding: 56 56 16
Width: 455
GlyphClass: 2
Flags: W
LayerCount: 2
Fore
SplineSet
437 575 m 2,0,-1
 437 407 l 2,1,2
 437 377 437 377 423 350 c 1,3,4
 437 323 437 323 437 293 c 2,5,-1
 437 126 l 2,6,7
 437 74 437 74 400.5 37.5 c 128,-1,8
 364 1 364 1 313 1 c 2,9,-1
 143 1 l 2,10,11
 91 1 91 1 54.5 37.5 c 128,-1,12
 18 74 18 74 18 126 c 2,13,-1
 18 293 l 2,14,15
 18 323 18 323 32 350 c 1,16,17
 18 377 18 377 18 407 c 2,18,-1
 18 575 l 2,19,20
 18 608 18 608 35 637 c 128,-1,21
 52 666 52 666 80.5 683 c 128,-1,22
 109 700 109 700 143 700 c 2,23,-1
 313 700 l 2,24,25
 364 700 364 700 400.5 663 c 128,-1,26
 437 626 437 626 437 575 c 2,0,-1
381 407 m 2,27,-1
 381 575 l 2,28,29
 381 593 381 593 372 609 c 128,-1,30
 363 625 363 625 347 634.5 c 128,-1,31
 331 644 331 644 313 644 c 2,32,-1
 143 644 l 2,33,34
 115 644 115 644 94.5 623.5 c 128,-1,35
 74 603 74 603 74 575 c 2,36,-1
 74 407 l 2,37,38
 74 391 74 391 82 376 c 2,39,-1
 95 350 l 1,40,-1
 82 324 l 2,41,42
 74 310 74 310 74 293 c 2,43,-1
 74 126 l 2,44,45
 74 97 74 97 94.5 77 c 128,-1,46
 115 57 115 57 143 57 c 2,47,-1
 313 57 l 2,48,49
 341 57 341 57 361 77 c 128,-1,50
 381 97 381 97 381 126 c 2,51,-1
 381 293 l 2,52,53
 381 310 381 310 374 324 c 2,54,-1
 360 350 l 1,55,-1
 374 376 l 2,56,57
 381 391 381 391 381 407 c 2,27,-1
102 366 m 1,58,-1
 102 616 l 1,59,-1
 354 616 l 1,60,-1
 354 366 l 1,61,-1
 102 366 l 1,58,-1
158 560 m 1,62,-1
 158 422 l 1,63,-1
 298 422 l 1,64,-1
 298 560 l 1,65,-1
 158 560 l 1,62,-1
102 85 m 1,66,-1
 102 334 l 1,67,-1
 354 334 l 1,68,-1
 354 85 l 1,69,-1
 102 85 l 1,66,-1
158 278 m 1,70,-1
 158 140 l 1,71,-1
 298 140 l 1,72,-1
 298 278 l 1,73,-1
 158 278 l 1,70,-1
EndSplineSet
EndChar

StartChar: nine
Encoding: 57 57 17
Width: 455
GlyphClass: 2
Flags: W
LayerCount: 2
Fore
SplineSet
437 575 m 0,0,1
 437 508 437 508 437 375.5 c 128,-1,2
 437 243 437 243 437 177 c 2,3,-1
 437 126 l 2,4,5
 437 74 437 74 400.5 37.5 c 128,-1,6
 364 1 364 1 313 1 c 2,7,-1
 156 1 l 1,8,-1
 156 140 l 1,9,-1
 298 140 l 1,10,-1
 298 282 l 1,11,-1
 143 282 l 2,12,13
 111 282 111 282 84 297 c 128,-1,14
 57 312 57 312 39.5 337.5 c 128,-1,15
 22 363 22 363 19 394 c 1,16,-1
 18 394 l 1,17,-1
 18 575 l 2,18,19
 18 626 18 626 54.5 663 c 128,-1,20
 91 700 91 700 143 700 c 2,21,-1
 313 700 l 2,22,23
 364 700 364 700 400.5 663 c 128,-1,24
 437 626 437 626 437 575 c 0,0,1
313 57 m 2,25,26
 331 57 331 57 347 66 c 128,-1,27
 363 75 363 75 372.5 91 c 128,-1,28
 382 107 382 107 382 126 c 0,29,30
 382 200 382 200 381.5 350 c 128,-1,31
 381 500 381 500 381 575 c 0,32,33
 381 603 381 603 361 623.5 c 128,-1,34
 341 644 341 644 313 644 c 2,35,-1
 143 644 l 2,36,37
 114 644 114 644 94 623.5 c 128,-1,38
 74 603 74 603 74 575 c 2,39,-1
 74 404 l 1,40,-1
 74 400 l 2,41,42
 77 374 77 374 97 356 c 128,-1,43
 117 338 117 338 143 338 c 2,44,-1
 354 338 l 1,45,-1
 354 85 l 1,46,-1
 212 85 l 1,47,-1
 212 57 l 1,48,-1
 313 57 l 2,25,26
102 366 m 1,49,-1
 102 616 l 1,50,-1
 354 616 l 1,51,-1
 354 366 l 1,52,-1
 102 366 l 1,49,-1
158 560 m 1,53,-1
 158 422 l 1,54,-1
 298 422 l 1,55,-1
 298 560 l 1,56,-1
 158 560 l 1,53,-1
EndSplineSet
EndChar

StartChar: A
Encoding: 65 65 18
AltUni2: 0000c5.ffffffff.0 0000c4.ffffffff.0 0000c3.ffffffff.0 0000c2.ffffffff.0 0000c1.ffffffff.0 0000c0.ffffffff.0 0000c5.ffffffff.0 0000c4.ffffffff.0 0000c3.ffffffff.0 0000c2.ffffffff.0 0000c1.ffffffff.0 0000c0.ffffffff.0
Width: 456
GlyphClass: 2
Flags: W
LayerCount: 2
Fore
SplineSet
102 367 m 1,0,-1
 102 616 l 1,1,-1
 354 616 l 1,2,-1
 354 367 l 1,3,-1
 102 367 l 1,0,-1
158 560 m 1,4,-1
 158 423 l 1,5,-1
 298 423 l 1,6,-1
 298 560 l 1,7,-1
 158 560 l 1,4,-1
313 700 m 2,8,9
 346 700 346 700 375 683.5 c 128,-1,10
 404 667 404 667 420.5 638 c 128,-1,11
 437 609 437 609 437 575 c 2,12,-1
 437 1 l 1,13,-1
 298 1 l 1,14,-1
 298 283 l 1,15,-1
 158 283 l 1,16,-1
 158 1 l 1,17,-1
 18 1 l 1,18,-1
 18 404 l 2,19,20
 18 406 18 406 18 408 c 2,21,-1
 18 575 l 2,22,23
 18 627 18 627 54.5 663.5 c 128,-1,24
 91 700 91 700 143 700 c 2,25,-1
 313 700 l 2,8,9
354 57 m 1,26,-1
 381 57 l 1,27,-1
 381 575 l 2,28,29
 381 604 381 604 361 624 c 128,-1,30
 341 644 341 644 313 644 c 2,31,-1
 143 644 l 2,32,33
 124 644 124 644 108 635 c 128,-1,34
 92 626 92 626 83 610 c 128,-1,35
 74 594 74 594 74 575 c 2,36,-1
 74 408 l 2,37,38
 74 407 74 407 74 406 c 2,39,-1
 74 405 l 1,40,-1
 74 57 l 1,41,-1
 102 57 l 1,42,-1
 102 339 l 1,43,-1
 354 339 l 1,44,-1
 354 57 l 1,26,-1
EndSplineSet
EndChar

StartChar: B
Encoding: 66 66 19
Width: 456
GlyphClass: 2
Flags: W
LayerCount: 2
Fore
SplineSet
437 575 m 2,0,-1
 437 408 l 2,1,2
 437 377 437 377 411 351 c 1,3,4
 437 324 437 324 437 293 c 2,5,-1
 437 126 l 2,6,7
 437 74 437 74 400.5 37.5 c 128,-1,8
 364 1 364 1 313 1 c 2,9,-1
 18 1 l 1,10,-1
 18 700 l 1,11,12
 67 700 67 700 165 700 c 128,-1,13
 263 700 263 700 313 700 c 0,14,15
 364 700 364 700 400.5 663.5 c 128,-1,16
 437 627 437 627 437 575 c 2,0,-1
381 126 m 2,17,-1
 381 316 l 2,18,19
 381 324 381 324 355 351 c 1,20,-1
 355 352 l 1,21,-1
 372 369 l 2,22,23
 381 378 381 378 381 386 c 2,24,-1
 381 575 l 2,25,26
 381 604 381 604 361 624 c 128,-1,27
 341 644 341 644 313 644 c 0,28,29
 273 644 273 644 193.5 644 c 128,-1,30
 114 644 114 644 74 644 c 1,31,-1
 74 57 l 1,32,-1
 254 57 l 1,33,-1
 313 57 l 2,34,35
 341 57 341 57 361 77.5 c 128,-1,36
 381 98 381 98 381 126 c 2,17,-1
102 85 m 1,37,-1
 102 334 l 1,38,39
 144 334 144 334 228 334 c 128,-1,40
 312 334 312 334 354 334 c 1,41,-1
 354 85 l 1,42,-1
 102 85 l 1,37,-1
158 278 m 1,43,-1
 158 141 l 1,44,-1
 298 141 l 1,45,-1
 298 278 l 1,46,-1
 158 278 l 1,43,-1
354 367 m 1,47,-1
 102 367 l 1,48,-1
 102 616 l 1,49,50
 144 616 144 616 227.5 616 c 128,-1,51
 311 616 311 616 354 616 c 1,52,-1
 354 367 l 1,47,-1
158 560 m 1,53,-1
 158 423 l 1,54,-1
 298 423 l 1,55,-1
 298 560 l 1,56,-1
 158 560 l 1,53,-1
EndSplineSet
EndChar

StartChar: C
Encoding: 67 67 20
AltUni2: 0000c7.ffffffff.0 0000c7.ffffffff.0
Width: 456
GlyphClass: 2
Flags: W
LayerCount: 2
Fore
SplineSet
298 420 m 1,0,-1
 298 560 l 1,1,-1
 158 560 l 1,2,-1
 158 141 l 1,3,-1
 298 141 l 1,4,-1
 298 281 l 1,5,-1
 437 281 l 1,6,-1
 437 126 l 2,7,8
 437 74 437 74 400.5 37.5 c 128,-1,9
 364 1 364 1 313 1 c 2,10,-1
 143 1 l 2,11,12
 91 1 91 1 54.5 37.5 c 128,-1,13
 18 74 18 74 18 126 c 2,14,-1
 18 575 l 2,15,16
 18 627 18 627 54.5 663.5 c 128,-1,17
 91 700 91 700 143 700 c 2,18,-1
 313 700 l 2,19,20
 338 700 338 700 361 690 c 128,-1,21
 384 680 384 680 401 663.5 c 128,-1,22
 418 647 418 647 427.5 623.5 c 128,-1,23
 437 600 437 600 437 575 c 2,24,-1
 437 420 l 1,25,26
 414 420 414 420 367.5 420 c 128,-1,27
 321 420 321 420 298 420 c 1,0,-1
102 616 m 1,28,-1
 354 616 l 1,29,-1
 354 476 l 1,30,-1
 381 476 l 1,31,-1
 381 575 l 2,32,33
 381 604 381 604 361 624 c 128,-1,34
 341 644 341 644 313 644 c 2,35,-1
 143 644 l 2,36,37
 114 644 114 644 94 624 c 128,-1,38
 74 604 74 604 74 575 c 2,39,-1
 74 126 l 2,40,41
 74 98 74 98 94 77.5 c 128,-1,42
 114 57 114 57 143 57 c 2,43,-1
 313 57 l 2,44,45
 341 57 341 57 361 77.5 c 128,-1,46
 381 98 381 98 381 126 c 2,47,-1
 381 225 l 1,48,-1
 354 225 l 1,49,-1
 354 85 l 1,50,-1
 102 85 l 1,51,-1
 102 616 l 1,28,-1
EndSplineSet
EndChar

StartChar: D
Encoding: 68 68 21
Width: 456
GlyphClass: 2
Flags: W
LayerCount: 2
Fore
SplineSet
313 700 m 0,0,1
 364 700 364 700 400.5 663.5 c 128,-1,2
 437 627 437 627 437 575 c 2,3,-1
 437 126 l 2,4,5
 437 74 437 74 400.5 37.5 c 128,-1,6
 364 1 364 1 313 1 c 2,7,-1
 18 1 l 1,8,-1
 18 700 l 1,9,10
 67 700 67 700 165 700 c 128,-1,11
 263 700 263 700 313 700 c 0,0,1
381 126 m 2,12,-1
 381 575 l 2,13,14
 381 594 381 594 372 610 c 128,-1,15
 363 626 363 626 347 635 c 128,-1,16
 331 644 331 644 313 644 c 0,17,18
 273 644 273 644 193.5 644 c 128,-1,19
 114 644 114 644 74 644 c 1,20,-1
 74 57 l 1,21,-1
 313 57 l 2,22,23
 341 57 341 57 361 77.5 c 128,-1,24
 381 98 381 98 381 126 c 2,12,-1
102 85 m 1,25,-1
 102 616 l 1,26,-1
 354 616 l 1,27,-1
 354 85 l 1,28,-1
 102 85 l 1,25,-1
158 560 m 1,29,-1
 158 141 l 1,30,-1
 298 141 l 1,31,-1
 298 560 l 1,32,-1
 158 560 l 1,29,-1
EndSplineSet
EndChar

StartChar: E
Encoding: 69 69 22
AltUni2: 0000cb.ffffffff.0 0000ca.ffffffff.0 0000c9.ffffffff.0 0000c8.ffffffff.0 0000cb.ffffffff.0 0000ca.ffffffff.0 0000c9.ffffffff.0 0000c8.ffffffff.0
Width: 456
GlyphClass: 2
Flags: W
LayerCount: 2
Fore
SplineSet
437 560 m 1,0,-1
 158 560 l 1,1,-1
 158 420 l 1,2,-1
 301 420 l 1,3,-1
 301 281 l 1,4,-1
 158 281 l 1,5,-1
 158 141 l 1,6,-1
 437 141 l 1,7,-1
 437 1 l 1,8,-1
 18 1 l 1,9,-1
 18 700 l 1,10,-1
 437 700 l 1,11,-1
 437 560 l 1,0,-1
245 364 m 1,12,-1
 102 364 l 1,13,-1
 102 616 l 1,14,-1
 381 616 l 1,15,-1
 381 644 l 1,16,-1
 74 644 l 1,17,-1
 74 57 l 1,18,-1
 381 57 l 1,19,-1
 381 85 l 1,20,-1
 102 85 l 1,21,-1
 102 337 l 1,22,-1
 245 337 l 1,23,-1
 245 364 l 1,12,-1
EndSplineSet
EndChar

StartChar: F
Encoding: 70 70 23
Width: 455
GlyphClass: 2
Flags: W
LayerCount: 2
Fore
SplineSet
437 560 m 1,0,-1
 158 560 l 1,1,-1
 158 420 l 1,2,-1
 301 420 l 1,3,-1
 301 281 l 1,4,-1
 158 281 l 1,5,-1
 158 1 l 1,6,-1
 18 1 l 1,7,-1
 18 700 l 1,8,-1
 437 700 l 1,9,-1
 437 560 l 1,0,-1
245 364 m 1,10,-1
 102 364 l 1,11,-1
 102 616 l 1,12,-1
 381 616 l 1,13,-1
 381 644 l 1,14,-1
 74 644 l 1,15,-1
 74 57 l 1,16,-1
 102 57 l 1,17,-1
 102 337 l 1,18,-1
 245 337 l 1,19,-1
 245 364 l 1,10,-1
EndSplineSet
EndChar

StartChar: G
Encoding: 71 71 24
Width: 455
GlyphClass: 2
Flags: W
LayerCount: 2
Fore
SplineSet
143 700 m 2,0,-1
 437 700 l 1,1,-1
 437 481 l 1,2,-1
 297 481 l 1,3,-1
 297 560 l 1,4,-1
 158 560 l 1,5,-1
 158 141 l 1,6,-1
 298 141 l 1,7,-1
 298 281 l 1,8,-1
 223 281 l 1,9,-1
 223 420 l 1,10,-1
 437 420 l 1,11,-1
 437 281 l 1,12,-1
 437 126 l 2,13,14
 437 74 437 74 400.5 37.5 c 128,-1,15
 364 1 364 1 313 1 c 2,16,-1
 143 1 l 2,17,18
 91 1 91 1 54.5 37.5 c 128,-1,19
 18 74 18 74 18 126 c 2,20,-1
 18 575 l 2,21,22
 18 627 18 627 54.5 663.5 c 128,-1,23
 91 700 91 700 143 700 c 2,0,-1
381 537 m 1,24,25
 381 555 381 555 381.5 590.5 c 128,-1,26
 382 626 382 626 382 644 c 1,27,-1
 143 644 l 2,28,29
 114 644 114 644 94 624 c 128,-1,30
 74 604 74 604 74 575 c 2,31,-1
 74 126 l 2,32,33
 74 98 74 98 94 77.5 c 128,-1,34
 114 57 114 57 143 57 c 2,35,-1
 313 57 l 2,36,37
 341 57 341 57 361 77.5 c 128,-1,38
 381 98 381 98 381 126 c 0,39,40
 381 166 381 166 381.5 245.5 c 128,-1,41
 382 325 382 325 382 364 c 1,42,-1
 279 364 l 1,43,-1
 279 337 l 1,44,-1
 354 337 l 1,45,-1
 354 85 l 1,46,-1
 102 85 l 1,47,-1
 102 616 l 1,48,-1
 354 616 l 1,49,-1
 354 537 l 1,50,-1
 381 537 l 1,24,25
EndSplineSet
EndChar

StartChar: H
Encoding: 72 72 25
Width: 457
GlyphClass: 2
Flags: W
LayerCount: 2
Fore
SplineSet
300 700 m 1,0,-1
 439 700 l 1,1,-1
 439 1 l 1,2,-1
 300 1 l 1,3,-1
 300 281 l 1,4,-1
 158 281 l 1,5,-1
 158 1 l 1,6,-1
 18 1 l 1,7,-1
 18 700 l 1,8,-1
 158 700 l 1,9,-1
 158 420 l 1,10,-1
 300 420 l 1,11,-1
 300 700 l 1,0,-1
383 57 m 1,12,-1
 383 644 l 1,13,-1
 355 644 l 1,14,-1
 355 364 l 1,15,-1
 102 364 l 1,16,-1
 102 644 l 1,17,-1
 74 644 l 1,18,-1
 74 57 l 1,19,-1
 102 57 l 1,20,-1
 102 337 l 1,21,-1
 355 337 l 1,22,-1
 355 57 l 1,23,-1
 383 57 l 1,12,-1
EndSplineSet
EndChar

StartChar: I
Encoding: 73 73 26
AltUni2: 0000cf.ffffffff.0 0000ce.ffffffff.0 0000cd.ffffffff.0 0000cc.ffffffff.0 0000cf.ffffffff.0 0000ce.ffffffff.0 0000cd.ffffffff.0 0000cc.ffffffff.0
Width: 176
GlyphClass: 2
Flags: W
LayerCount: 2
Fore
SplineSet
18 700 m 1,0,-1
 158 700 l 1,1,-1
 158 1 l 1,2,-1
 18 1 l 1,3,-1
 18 700 l 1,0,-1
102 57 m 1,4,-1
 102 644 l 1,5,-1
 74 644 l 1,6,-1
 74 57 l 1,7,-1
 102 57 l 1,4,-1
EndSplineSet
EndChar

StartChar: J
Encoding: 74 74 27
Width: 435
GlyphClass: 2
Flags: W
LayerCount: 2
Fore
SplineSet
277 700 m 1,0,-1
 417 700 l 1,1,-1
 417 1 l 1,2,-1
 139 1 l 2,3,4
 104 1 104 1 83.5 4.5 c 128,-1,5
 63 8 63 8 46.5 18.5 c 128,-1,6
 30 29 30 29 23.5 50.5 c 128,-1,7
 17 72 17 72 18 107 c 2,8,-1
 18 282 l 1,9,-1
 158 282 l 1,10,-1
 158 141 l 1,11,-1
 277 141 l 1,12,-1
 277 700 l 1,0,-1
361 57 m 1,13,-1
 361 644 l 1,14,-1
 333 644 l 1,15,-1
 333 85 l 1,16,-1
 102 85 l 1,17,-1
 102 226 l 1,18,-1
 74 226 l 1,19,-1
 74 133 l 2,20,21
 74 76 74 76 79 68 c 0,22,23
 80 65 80 65 82 63 c 128,-1,24
 84 61 84 61 87.5 59.5 c 128,-1,25
 91 58 91 58 94 57.5 c 128,-1,26
 97 57 97 57 103 57 c 128,-1,27
 109 57 109 57 113 57 c 128,-1,28
 117 57 117 57 125.5 57 c 128,-1,29
 134 57 134 57 139 57 c 2,30,-1
 361 57 l 1,13,-1
EndSplineSet
EndChar

StartChar: K
Encoding: 75 75 28
Width: 456
GlyphClass: 2
Flags: W
LayerCount: 2
Fore
SplineSet
298 700 m 1,0,1
 321 700 321 700 367.5 700 c 128,-1,2
 414 700 414 700 438 700 c 1,3,-1
 438 425 l 2,4,5
 438 402 438 402 430 379.5 c 128,-1,6
 422 357 422 357 402 351 c 1,7,8
 420 342 420 342 429 322 c 128,-1,9
 438 302 438 302 438 283 c 2,10,-1
 438 1 l 1,11,-1
 298 1 l 1,12,-1
 298 278 l 1,13,-1
 158 278 l 1,14,15
 158 232 158 232 158 139.5 c 128,-1,16
 158 47 158 47 158 1 c 1,17,-1
 18 1 l 1,18,-1
 18 700 l 1,19,-1
 158 700 l 1,20,-1
 158 423 l 1,21,-1
 298 423 l 1,22,-1
 298 700 l 1,0,1
382 377 m 2,23,-1
 382 644 l 1,24,-1
 354 644 l 1,25,-1
 354 367 l 1,26,-1
 102 367 l 1,27,-1
 102 644 l 1,28,-1
 74 644 l 1,29,-1
 74 57 l 1,30,-1
 102 57 l 1,31,-1
 102 333 l 1,32,-1
 102 334 l 1,33,34
 146 334 146 334 229 334.5 c 128,-1,35
 312 335 312 335 354 335 c 1,36,-1
 354 57 l 1,37,-1
 382 57 l 1,38,-1
 382 328 l 1,39,40
 376 341 376 341 358 351 c 1,41,42
 369 354 369 354 374 359.5 c 128,-1,43
 379 365 379 365 382 377 c 2,23,-1
EndSplineSet
EndChar

StartChar: L
Encoding: 76 76 29
Width: 374
GlyphClass: 2
Flags: W
LayerCount: 2
Fore
SplineSet
158 141 m 1,0,-1
 356 141 l 1,1,-1
 356 1 l 1,2,-1
 18 1 l 1,3,-1
 18 700 l 1,4,-1
 158 700 l 1,5,-1
 158 141 l 1,0,-1
300 57 m 1,6,-1
 300 85 l 1,7,-1
 102 85 l 1,8,-1
 102 644 l 1,9,-1
 74 644 l 1,10,-1
 74 57 l 1,11,-1
 300 57 l 1,6,-1
EndSplineSet
EndChar

StartChar: M
Encoding: 77 77 30
Width: 595
GlyphClass: 2
Flags: W
LayerCount: 2
Fore
SplineSet
437 700 m 1,0,-1
 577 700 l 1,1,-1
 577 1 l 1,2,-1
 437 1 l 1,3,-1
 437 432 l 1,4,-1
 345 281 l 1,5,-1
 248 282 l 1,6,-1
 158 431 l 1,7,-1
 158 1 l 1,8,-1
 18 1 l 1,9,-1
 18 700 l 1,10,-1
 159 700 l 1,11,-1
 159 699 l 1,12,-1
 297 472 l 1,13,-1
 437 700 l 1,0,-1
493 57 m 1,14,-1
 521 57 l 1,15,-1
 521 644 l 1,16,-1
 469 644 l 1,17,-1
 462 634 l 1,18,-1
 296 364 l 1,19,-1
 132 635 l 1,20,-1
 128 644 l 1,21,22
 118 644 118 644 100 644 c 128,-1,23
 82 644 82 644 74 644 c 1,24,-1
 74 57 l 1,25,-1
 102 57 l 1,26,-1
 102 616 l 1,27,-1
 111 616 l 1,28,-1
 280 338 l 1,29,-1
 314 337 l 1,30,-1
 484 616 l 1,31,-1
 493 616 l 1,32,-1
 493 57 l 1,14,-1
EndSplineSet
EndChar

StartChar: N
Encoding: 78 78 31
AltUni2: 0000d1.ffffffff.0 0000d1.ffffffff.0
Width: 455
GlyphClass: 2
Flags: W
LayerCount: 2
Fore
SplineSet
297 700 m 1,0,-1
 437 700 l 1,1,-1
 437 1 l 1,2,-1
 297 1 l 1,3,-1
 158 336 l 1,4,-1
 158 1 l 1,5,-1
 18 1 l 1,6,-1
 18 700 l 1,7,-1
 158 700 l 1,8,-1
 297 364 l 1,9,-1
 297 700 l 1,0,-1
381 57 m 1,10,-1
 381 644 l 1,11,-1
 353 644 l 1,12,-1
 353 86 l 1,13,-1
 352 86 l 1,14,-1
 121 644 l 1,15,-1
 74 644 l 1,16,-1
 74 57 l 1,17,-1
 102 57 l 1,18,-1
 102 617 l 1,19,-1
 326 77 l 1,20,-1
 334 58 l 1,21,22
 342 58 342 58 357.5 57.5 c 128,-1,23
 373 57 373 57 381 57 c 1,10,-1
EndSplineSet
EndChar

StartChar: O
Encoding: 79 79 32
AltUni2: 0000d8.ffffffff.0 0000d6.ffffffff.0 0000d5.ffffffff.0 0000d4.ffffffff.0 0000d3.ffffffff.0 0000d2.ffffffff.0 0000d8.ffffffff.0 0000d6.ffffffff.0 0000d5.ffffffff.0 0000d4.ffffffff.0 0000d3.ffffffff.0 0000d2.ffffffff.0
Width: 455
GlyphClass: 2
Flags: W
LayerCount: 2
Fore
SplineSet
102 85 m 1,0,-1
 102 616 l 1,1,-1
 354 616 l 1,2,-1
 354 85 l 1,3,-1
 102 85 l 1,0,-1
158 560 m 1,4,-1
 158 141 l 1,5,-1
 298 141 l 1,6,-1
 298 560 l 1,7,-1
 158 560 l 1,4,-1
313 700 m 2,8,9
 346 700 346 700 375 683.5 c 128,-1,10
 404 667 404 667 420.5 638 c 128,-1,11
 437 609 437 609 437 575 c 2,12,-1
 437 126 l 2,13,14
 437 74 437 74 400.5 37.5 c 128,-1,15
 364 1 364 1 313 1 c 2,16,-1
 143 1 l 2,17,18
 91 1 91 1 54.5 37.5 c 128,-1,19
 18 74 18 74 18 126 c 2,20,-1
 18 575 l 2,21,22
 18 627 18 627 54.5 663.5 c 128,-1,23
 91 700 91 700 143 700 c 2,24,-1
 313 700 l 2,8,9
382 373 m 1,25,-1
 382 476 l 1,26,-1
 381 575 l 2,27,28
 381 594 381 594 372 610 c 128,-1,29
 363 626 363 626 347 635 c 128,-1,30
 331 644 331 644 313 644 c 2,31,-1
 143 644 l 2,32,33
 115 644 115 644 94.5 624 c 128,-1,34
 74 604 74 604 74 575 c 2,35,-1
 74 126 l 2,36,37
 74 98 74 98 94.5 77.5 c 128,-1,38
 115 57 115 57 143 57 c 2,39,-1
 313 57 l 2,40,41
 341 57 341 57 361 77.5 c 128,-1,42
 381 98 381 98 381 126 c 2,43,-1
 382 373 l 1,25,-1
EndSplineSet
EndChar

StartChar: P
Encoding: 80 80 33
Width: 455
GlyphClass: 2
Flags: W
LayerCount: 2
Fore
SplineSet
313 700 m 2,0,1
 364 700 364 700 400.5 663.5 c 128,-1,2
 437 627 437 627 437 575 c 2,3,-1
 437 408 l 2,4,5
 437 356 437 356 400.5 319.5 c 128,-1,6
 364 283 364 283 313 283 c 2,7,-1
 158 283 l 1,8,-1
 158 1 l 1,9,-1
 18 1 l 1,10,-1
 18 404 l 2,11,12
 18 406 18 406 18 408 c 2,13,-1
 18 700 l 1,14,-1
 313 700 l 2,0,1
381 408 m 2,15,-1
 381 575 l 2,16,17
 381 594 381 594 372 610 c 128,-1,18
 363 626 363 626 347 635 c 128,-1,19
 331 644 331 644 313 644 c 2,20,-1
 74 644 l 1,21,22
 74 546 74 546 74 350.5 c 128,-1,23
 74 155 74 155 74 57 c 1,24,-1
 102 57 l 1,25,-1
 102 339 l 1,26,-1
 313 339 l 2,27,28
 331 339 331 339 347 348 c 128,-1,29
 363 357 363 357 372 373 c 128,-1,30
 381 389 381 389 381 408 c 2,15,-1
102 367 m 1,31,-1
 102 616 l 1,32,-1
 354 616 l 1,33,-1
 354 367 l 1,34,-1
 102 367 l 1,31,-1
158 560 m 1,35,-1
 158 423 l 1,36,-1
 298 423 l 1,37,-1
 298 560 l 1,38,-1
 158 560 l 1,35,-1
EndSplineSet
EndChar

StartChar: Q
Encoding: 81 81 34
Width: 504
GlyphClass: 2
Flags: W
LayerCount: 2
Fore
SplineSet
424 70 m 1,0,-1
 486 -4 l 1,1,-1
 389 -87 l 1,2,-1
 314 1 l 2,3,4
 313 1 313 1 313 1 c 1,5,-1
 143 1 l 2,6,7
 109 1 109 1 80.5 18 c 128,-1,8
 52 35 52 35 35 63.5 c 128,-1,9
 18 92 18 92 18 126 c 2,10,-1
 18 136 l 1,11,-1
 18 575 l 2,12,13
 18 627 18 627 54.5 663.5 c 128,-1,14
 91 700 91 700 143 700 c 2,15,-1
 313 700 l 2,16,17
 364 700 364 700 400.5 663.5 c 128,-1,18
 437 627 437 627 437 575 c 2,19,-1
 437 126 l 2,20,21
 437 96 437 96 424 70 c 1,0,-1
390 -12 m 1,22,23
 407 2 407 2 412 6 c 1,24,-1
 364 62 l 1,25,26
 374 70 374 70 377 82 c 0,27,28
 380 92 380 92 381 117 c 0,29,30
 381 122 381 122 381 126 c 2,31,-1
 381 575 l 2,32,33
 381 604 381 604 361 624 c 128,-1,34
 341 644 341 644 313 644 c 2,35,-1
 143 644 l 2,36,37
 114 644 114 644 94 624 c 128,-1,38
 74 604 74 604 74 575 c 2,39,-1
 74 126 l 2,40,41
 74 98 74 98 94 77.5 c 128,-1,42
 114 57 114 57 143 57 c 0,43,44
 312 57 312 57 332 57 c 1,45,-1
 390 -12 l 1,22,23
308 85 m 1,46,-1
 102 85 l 1,47,-1
 102 616 l 1,48,-1
 354 616 l 1,49,-1
 354 85 l 1,50,-1
 345 85 l 1,51,-1
 266 178 l 1,52,-1
 244 160 l 1,53,-1
 308 85 l 1,46,-1
158 193 m 1,54,-1
 158 141 l 1,55,-1
 195 141 l 1,56,-1
 170 170 l 1,57,-1
 267 253 l 1,58,-1
 298 218 l 1,59,60
 298 268 298 268 297.5 364.5 c 128,-1,61
 297 461 297 461 297 510 c 1,62,-1
 298 510 l 1,63,-1
 298 560 l 1,64,-1
 158 560 l 1,65,-1
 158 193 l 1,54,-1
EndSplineSet
EndChar

StartChar: R
Encoding: 82 82 35
Width: 455
GlyphClass: 2
Flags: W
LayerCount: 2
Fore
SplineSet
102 616 m 1,0,-1
 354 616 l 1,1,2
 354 575 354 575 354 491.5 c 128,-1,3
 354 408 354 408 354 367 c 1,4,-1
 102 367 l 1,5,-1
 102 616 l 1,0,-1
298 423 m 1,6,-1
 298 560 l 1,7,-1
 158 560 l 1,8,-1
 158 423 l 1,9,-1
 298 423 l 1,6,-1
437 424 m 2,10,11
 437 411 437 411 435 397.5 c 128,-1,12
 433 384 433 384 425 370 c 128,-1,13
 417 356 417 356 404 353 c 1,14,15
 437 335 437 335 437 289 c 2,16,-1
 437 1 l 1,17,-1
 298 1 l 1,18,-1
 298 283 l 1,19,-1
 158 283 l 1,20,-1
 158 1 l 1,21,-1
 18 1 l 1,22,-1
 18 404 l 2,23,24
 18 406 18 406 18 408 c 2,25,-1
 18 700 l 1,26,-1
 313 700 l 2,27,28
 364 700 364 700 400.5 663.5 c 128,-1,29
 437 627 437 627 437 575 c 2,30,-1
 437 424 l 2,10,11
381 406 m 2,31,-1
 381 575 l 2,32,33
 381 604 381 604 361 624 c 128,-1,34
 341 644 341 644 313 644 c 2,35,-1
 74 644 l 1,36,37
 74 546 74 546 74 350.5 c 128,-1,38
 74 155 74 155 74 57 c 1,39,-1
 102 57 l 1,40,-1
 102 339 l 1,41,-1
 295 339 l 1,42,-1
 354 339 l 1,43,44
 354 292 354 292 354 198 c 128,-1,45
 354 104 354 104 354 57 c 1,46,-1
 381 57 l 1,47,-1
 381 296 l 2,48,49
 381 338 381 338 356 353 c 1,50,51
 381 367 381 367 381 406 c 2,31,-1
EndSplineSet
EndChar

StartChar: S
Encoding: 83 83 36
Width: 456
GlyphClass: 2
Flags: W
LayerCount: 2
Fore
SplineSet
158 475 m 1,0,-1
 438 313 l 1,1,-1
 437 126 l 2,2,3
 437 74 437 74 400.5 37.5 c 128,-1,4
 364 1 364 1 313 1 c 2,5,-1
 18 1 l 1,6,7
 18 39 18 39 18 115 c 128,-1,8
 18 191 18 191 18 229 c 1,9,-1
 119 229 l 2,10,11
 126 229 126 229 139 229 c 128,-1,12
 152 229 152 229 158 229 c 1,13,14
 158 214 158 214 158 185 c 128,-1,15
 158 156 158 156 158 141 c 1,16,-1
 298 141 l 1,17,-1
 298 233 l 1,18,19
 268 250 268 250 209.5 282.5 c 128,-1,20
 151 315 151 315 104 342.5 c 128,-1,21
 57 370 57 370 18 395 c 1,22,-1
 18 575 l 2,23,24
 18 627 18 627 54.5 663.5 c 128,-1,25
 91 700 91 700 143 700 c 2,26,-1
 437 700 l 1,27,28
 437 662 437 662 437 586 c 128,-1,29
 437 510 437 510 437 472 c 1,30,-1
 336 472 l 2,31,32
 330 472 330 472 316.5 472 c 128,-1,33
 303 472 303 472 297 472 c 1,34,35
 297 487 297 487 297.5 516 c 128,-1,36
 298 545 298 545 298 560 c 1,37,-1
 158 560 l 1,38,-1
 158 475 l 1,0,-1
382 126 m 2,39,-1
 382 281 l 1,40,-1
 102 443 l 1,41,-1
 102 616 l 1,42,-1
 354 616 l 1,43,-1
 354 528 l 1,44,-1
 381 528 l 1,45,-1
 381 616 l 1,46,-1
 382 616 l 1,47,-1
 382 644 l 1,48,-1
 143 644 l 2,49,50
 114 644 114 644 94 623.5 c 128,-1,51
 74 603 74 603 74 575 c 2,52,-1
 74 427 l 1,53,-1
 354 265 l 1,54,-1
 354 85 l 1,55,-1
 102 85 l 1,56,-1
 102 173 l 1,57,-1
 74 173 l 1,58,59
 74 154 74 154 74 115 c 128,-1,60
 74 76 74 76 74 57 c 1,61,-1
 313 57 l 2,62,63
 341 57 341 57 361.5 77.5 c 128,-1,64
 382 98 382 98 382 126 c 2,39,-1
EndSplineSet
EndChar

StartChar: T
Encoding: 84 84 37
Width: 455
GlyphClass: 2
Flags: W
LayerCount: 2
Fore
SplineSet
18 700 m 1,0,1
 65 700 65 700 150 700 c 128,-1,2
 235 700 235 700 305 700 c 128,-1,3
 375 700 375 700 437 700 c 1,4,-1
 437 560 l 1,5,-1
 298 560 l 1,6,-1
 298 1 l 1,7,-1
 158 1 l 1,8,-1
 158 560 l 1,9,-1
 18 560 l 1,10,-1
 18 700 l 1,0,1
242 616 m 1,11,-1
 381 616 l 1,12,-1
 381 644 l 1,13,-1
 74 644 l 1,14,-1
 74 616 l 1,15,-1
 214 616 l 1,16,-1
 214 57 l 1,17,-1
 242 57 l 1,18,-1
 242 616 l 1,11,-1
EndSplineSet
EndChar

StartChar: U
Encoding: 85 85 38
AltUni2: 0000dc.ffffffff.0 0000db.ffffffff.0 0000da.ffffffff.0 0000d9.ffffffff.0 0000dc.ffffffff.0 0000db.ffffffff.0 0000da.ffffffff.0 0000d9.ffffffff.0
Width: 455
GlyphClass: 2
Flags: W
LayerCount: 2
Fore
SplineSet
298 700 m 1,0,-1
 437 700 l 1,1,-1
 437 473 l 2,2,3
 437 415 437 415 437 299.5 c 128,-1,4
 437 184 437 184 437 126 c 0,5,6
 437 74 437 74 400.5 37.5 c 128,-1,7
 364 1 364 1 313 1 c 2,8,-1
 143 1 l 2,9,10
 91 1 91 1 54.5 37.5 c 128,-1,11
 18 74 18 74 18 126 c 2,12,-1
 18 700 l 1,13,-1
 158 700 l 1,14,-1
 158 141 l 1,15,-1
 298 141 l 1,16,-1
 298 700 l 1,0,-1
381 126 m 0,17,18
 381 212 381 212 381.5 385 c 128,-1,19
 382 558 382 558 382 644 c 1,20,-1
 354 644 l 1,21,-1
 354 85 l 1,22,-1
 102 85 l 1,23,-1
 102 644 l 1,24,-1
 74 644 l 1,25,-1
 74 126 l 2,26,27
 74 98 74 98 94 77.5 c 128,-1,28
 114 57 114 57 143 57 c 2,29,-1
 313 57 l 2,30,31
 341 57 341 57 361 77.5 c 128,-1,32
 381 98 381 98 381 126 c 0,17,18
EndSplineSet
EndChar

StartChar: V
Encoding: 86 86 39
Width: 597
GlyphClass: 2
Flags: W
LayerCount: 2
Fore
SplineSet
434 700 m 1,0,-1
 579 700 l 1,1,-1
 398 1 l 1,2,-1
 199 1 l 1,3,-1
 18 700 l 1,4,-1
 162 700 l 1,5,-1
 298 174 l 1,6,-1
 434 700 l 1,0,-1
355 57 m 1,7,-1
 507 644 l 1,8,-1
 478 644 l 1,9,-1
 333 85 l 1,10,-1
 264 85 l 1,11,-1
 119 644 l 1,12,-1
 90 644 l 1,13,-1
 242 57 l 1,14,-1
 355 57 l 1,7,-1
EndSplineSet
EndChar

StartChar: W
Encoding: 87 87 40
Width: 735
GlyphClass: 2
Flags: W
LayerCount: 2
Fore
SplineSet
577 700 m 1,0,-1
 716 700 l 1,1,-1
 652 1 l 1,2,-1
 512 1 l 1,3,-1
 372 229 l 1,4,-1
 234 2 l 1,5,-1
 234 1 l 1,6,-1
 93 1 l 1,7,-1
 18 700 l 1,8,-1
 158 700 l 1,9,-1
 209 229 l 1,10,-1
 324 419 l 1,11,-1
 420 420 l 1,12,-1
 534 234 l 1,13,-1
 577 700 l 1,0,-1
601 57 m 1,14,-1
 655 644 l 1,15,-1
 628 644 l 1,16,-1
 576 85 l 1,17,-1
 559 85 l 1,18,-1
 389 364 l 1,19,-1
 355 363 l 1,20,-1
 187 85 l 1,21,-1
 168 85 l 1,22,-1
 108 644 l 1,23,-1
 80 644 l 1,24,-1
 144 57 l 1,25,-1
 203 57 l 1,26,-1
 208 66 l 1,27,-1
 372 337 l 1,28,-1
 536 70 l 2,29,30
 537 68 537 68 538.5 66 c 128,-1,31
 540 64 540 64 541.5 61.5 c 128,-1,32
 543 59 543 59 544 57 c 2,33,-1
 601 57 l 1,14,-1
EndSplineSet
EndChar

StartChar: X
Encoding: 88 88 41
Width: 601
GlyphClass: 2
Flags: W
LayerCount: 2
Fore
SplineSet
583 700 m 1,0,-1
 381 351 l 1,1,-1
 583 1 l 1,2,-1
 422 1 l 1,3,-1
 300 211 l 1,4,-1
 179 1 l 1,5,-1
 18 1 l 1,6,-1
 220 351 l 1,7,-1
 18 700 l 1,8,-1
 179 700 l 1,9,-1
 300 490 l 1,10,-1
 422 700 l 1,11,-1
 583 700 l 1,0,-1
486 57 m 1,12,-1
 317 351 l 1,13,-1
 486 644 l 1,14,-1
 454 644 l 1,15,-1
 300 378 l 1,16,-1
 147 644 l 1,17,-1
 115 644 l 1,18,-1
 284 351 l 1,19,-1
 115 57 l 1,20,-1
 147 57 l 1,21,-1
 300 323 l 1,22,-1
 454 57 l 1,23,-1
 486 57 l 1,12,-1
EndSplineSet
EndChar

StartChar: Y
Encoding: 89 89 42
AltUni2: 000178.ffffffff.0 0000dd.ffffffff.0 000178.ffffffff.0 0000dd.ffffffff.0
Width: 455
GlyphClass: 2
Flags: W
LayerCount: 2
Fore
SplineSet
298 700 m 1,0,-1
 437 700 l 1,1,2
 437 651 437 651 437 553 c 128,-1,3
 437 455 437 455 437 406 c 0,4,5
 437 355 437 355 400.5 318.5 c 128,-1,6
 364 282 364 282 313 282 c 2,7,-1
 298 282 l 1,8,-1
 298 1 l 1,9,-1
 158 1 l 1,10,-1
 158 282 l 1,11,-1
 143 282 l 2,12,13
 91 282 91 282 54.5 318.5 c 128,-1,14
 18 355 18 355 18 406 c 2,15,-1
 18 700 l 1,16,-1
 158 700 l 1,17,-1
 158 421 l 1,18,-1
 298 421 l 1,19,20
 298 469 298 469 298 562 c 128,-1,21
 298 655 298 655 298 700 c 1,0,-1
381 406 m 2,22,-1
 381 644 l 1,23,-1
 354 644 l 1,24,-1
 354 607 l 1,25,-1
 354 365 l 1,26,-1
 102 365 l 1,27,-1
 102 644 l 1,28,-1
 74 644 l 1,29,-1
 74 406 l 2,30,31
 74 378 74 378 94.5 358 c 128,-1,32
 115 338 115 338 143 338 c 2,33,-1
 214 338 l 1,34,-1
 214 57 l 1,35,-1
 242 57 l 1,36,-1
 242 338 l 1,37,-1
 313 338 l 2,38,39
 341 338 341 338 361 358 c 128,-1,40
 381 378 381 378 381 406 c 2,22,-1
EndSplineSet
EndChar

StartChar: Z
Encoding: 90 90 43
Width: 456
GlyphClass: 2
Flags: W
LayerCount: 2
Fore
SplineSet
438 560 m 1,0,-1
 158 560 l 1,1,-1
 158 489 l 1,2,-1
 438 274 l 1,3,-1
 438 1 l 1,4,-1
 18 1 l 1,5,-1
 18 141 l 1,6,-1
 298 141 l 1,7,-1
 298 206 l 1,8,-1
 297 206 l 1,9,-1
 18 420 l 1,10,-1
 18 700 l 1,11,-1
 438 700 l 1,12,-1
 438 560 l 1,0,-1
382 246 m 2,13,14
 380 247 380 247 102 461 c 1,15,-1
 102 616 l 1,16,-1
 382 616 l 1,17,-1
 382 644 l 1,18,-1
 74 644 l 1,19,-1
 74 448 l 1,20,-1
 354 233 l 1,21,-1
 354 85 l 1,22,-1
 74 85 l 1,23,-1
 74 57 l 1,24,-1
 382 57 l 1,25,-1
 382 246 l 2,13,14
EndSplineSet
EndChar

StartChar: a
Encoding: 97 97 44
AltUni2: 0000e5.ffffffff.0 0000e4.ffffffff.0 0000e3.ffffffff.0 0000e2.ffffffff.0 0000e1.ffffffff.0 0000e0.ffffffff.0 0000e5.ffffffff.0 0000e4.ffffffff.0 0000e3.ffffffff.0 0000e2.ffffffff.0 0000e1.ffffffff.0 0000e0.ffffffff.0
Width: 487
GlyphClass: 2
Flags: W
LayerCount: 2
Fore
SplineSet
437 421 m 2,0,1
 437 374 437 374 437 281 c 128,-1,2
 437 188 437 188 437 142 c 1,3,-1
 469 142 l 1,4,-1
 469 2 l 1,5,-1
 143 2 l 2,6,7
 91 2 91 2 54.5 38.5 c 128,-1,8
 18 75 18 75 18 127 c 2,9,-1
 18 294 l 2,10,11
 18 346 18 346 54.5 382.5 c 128,-1,12
 91 419 91 419 143 419 c 2,13,-1
 297 419 l 1,14,-1
 297 452 l 1,15,-1
 437 452 l 1,16,-1
 437 421 l 2,0,1
158 142 m 1,17,-1
 297 142 l 1,18,-1
 297 279 l 1,19,-1
 158 279 l 1,20,-1
 158 142 l 1,17,-1
381 396 m 1,21,-1
 353 396 l 1,22,-1
 353 363 l 1,23,-1
 143 363 l 2,24,25
 124 363 124 363 108 354 c 128,-1,26
 92 345 92 345 83 329 c 128,-1,27
 74 313 74 313 74 294 c 2,28,-1
 74 127 l 2,29,30
 74 98 74 98 94.5 78 c 128,-1,31
 115 58 115 58 143 58 c 2,32,-1
 413 58 l 1,33,-1
 413 86 l 1,34,-1
 381 86 l 1,35,36
 381 138 381 138 381 241 c 128,-1,37
 381 344 381 344 381 396 c 1,21,-1
353 86 m 1,38,-1
 102 86 l 1,39,-1
 102 335 l 1,40,-1
 353 335 l 1,41,-1
 353 86 l 1,38,-1
EndSplineSet
EndChar

StartChar: b
Encoding: 98 98 45
Width: 455
GlyphClass: 2
Flags: W
LayerCount: 2
Fore
SplineSet
18 703 m 1,0,-1
 158 703 l 1,1,-1
 158 419 l 1,2,-1
 313 419 l 2,3,4
 364 419 364 419 400.5 382.5 c 128,-1,5
 437 346 437 346 437 294 c 2,6,-1
 437 127 l 2,7,8
 437 75 437 75 400.5 38.5 c 128,-1,9
 364 2 364 2 313 2 c 2,10,-1
 18 2 l 1,11,-1
 18 703 l 1,0,-1
158 279 m 1,12,-1
 158 142 l 1,13,-1
 298 142 l 1,14,-1
 298 279 l 1,15,-1
 158 279 l 1,12,-1
74 648 m 1,16,-1
 74 58 l 1,17,-1
 313 58 l 2,18,19
 341 58 341 58 361 78 c 128,-1,20
 381 98 381 98 381 127 c 2,21,-1
 381 294 l 2,22,23
 381 323 381 323 361 343 c 128,-1,24
 341 363 341 363 313 363 c 2,25,-1
 102 363 l 1,26,-1
 102 648 l 1,27,-1
 74 648 l 1,16,-1
102 335 m 1,28,-1
 354 335 l 1,29,-1
 354 86 l 1,30,-1
 102 86 l 1,31,-1
 102 335 l 1,28,-1
EndSplineSet
EndChar

StartChar: c
Encoding: 99 99 46
AltUni2: 0000e7.ffffffff.0 0000e7.ffffffff.0
Width: 455
GlyphClass: 2
Flags: W
LayerCount: 2
Fore
SplineSet
437 281 m 1,0,1
 391 281 391 281 298 281 c 128,-1,2
 205 281 205 281 158 281 c 1,3,-1
 158 144 l 1,4,5
 205 144 205 144 297.5 144.5 c 128,-1,6
 390 145 390 145 437 145 c 1,7,-1
 437 4 l 1,8,-1
 143 4 l 2,9,10
 109 4 109 4 80.5 20.5 c 128,-1,11
 52 37 52 37 35 65.5 c 128,-1,12
 18 94 18 94 18 129 c 2,13,-1
 18 296 l 2,14,15
 18 349 18 349 55 385.5 c 128,-1,16
 92 422 92 422 143 422 c 2,17,-1
 437 422 l 1,18,-1
 437 281 l 1,0,1
381 88 m 1,19,20
 335 88 335 88 241.5 88 c 128,-1,21
 148 88 148 88 102 88 c 1,22,-1
 102 337 l 1,23,24
 149 337 149 337 242 337 c 128,-1,25
 335 337 335 337 381 337 c 1,26,-1
 381 366 l 1,27,-1
 139 366 l 1,28,29
 111 362 111 362 92.5 343.5 c 128,-1,30
 74 325 74 325 74 296 c 2,31,-1
 74 129 l 2,32,33
 74 103 74 103 91.5 83 c 128,-1,34
 109 63 109 63 135 60 c 2,35,-1
 139 59 l 1,36,-1
 381 59 l 1,37,-1
 381 88 l 1,19,20
EndSplineSet
EndChar

StartChar: d
Encoding: 100 100 47
Width: 455
GlyphClass: 2
Flags: W
LayerCount: 2
Fore
SplineSet
298 703 m 1,0,-1
 437 703 l 1,1,-1
 437 2 l 1,2,-1
 143 2 l 2,3,4
 91 2 91 2 54.5 38.5 c 128,-1,5
 18 75 18 75 18 127 c 2,6,-1
 18 294 l 2,7,8
 18 346 18 346 54.5 382.5 c 128,-1,9
 91 419 91 419 143 419 c 2,10,-1
 298 419 l 1,11,-1
 298 703 l 1,0,-1
381 58 m 1,12,-1
 381 648 l 1,13,-1
 354 648 l 1,14,-1
 354 363 l 1,15,-1
 143 363 l 2,16,17
 115 363 115 363 94.5 343 c 128,-1,18
 74 323 74 323 74 294 c 2,19,-1
 74 127 l 2,20,21
 74 98 74 98 94.5 78 c 128,-1,22
 115 58 115 58 143 58 c 2,23,-1
 381 58 l 1,12,-1
102 86 m 1,24,-1
 102 335 l 1,25,-1
 354 335 l 1,26,-1
 354 86 l 1,27,-1
 102 86 l 1,24,-1
158 279 m 1,28,-1
 158 142 l 1,29,-1
 298 142 l 1,30,-1
 298 279 l 1,31,-1
 158 279 l 1,28,-1
EndSplineSet
EndChar

StartChar: e
Encoding: 101 101 48
AltUni2: 0000eb.ffffffff.0 0000ea.ffffffff.0 0000e9.ffffffff.0 0000e8.ffffffff.0 0000eb.ffffffff.0 0000ea.ffffffff.0 0000e9.ffffffff.0 0000e8.ffffffff.0
Width: 455
GlyphClass: 2
Flags: W
LayerCount: 2
Fore
SplineSet
158 182 m 1,0,-1
 158 125 l 1,1,2
 205 125 205 125 270.5 125.5 c 128,-1,3
 336 126 336 126 383 126 c 1,4,-1
 383 110 l 1,5,-1
 383 4 l 1,6,-1
 129 4 l 1,7,8
 82 10 82 10 50 45.5 c 128,-1,9
 18 81 18 81 18 129 c 2,10,-1
 18 296 l 2,11,12
 18 330 18 330 35 359 c 128,-1,13
 52 388 52 388 80.5 405 c 128,-1,14
 109 422 109 422 143 422 c 2,15,-1
 437 422 l 1,16,-1
 437 183 l 1,17,18
 390 183 390 183 297 182.5 c 128,-1,19
 204 182 204 182 158 182 c 1,0,-1
328 90 m 1,20,-1
 134 90 l 1,21,-1
 104 90 l 1,22,-1
 104 125 l 1,23,-1
 104 209 l 1,24,-1
 381 209 l 1,25,-1
 381 214 l 1,26,-1
 381 366 l 1,27,-1
 143 366 l 2,28,29
 124 366 124 366 108.5 356.5 c 128,-1,30
 93 347 93 347 83.5 331 c 128,-1,31
 74 315 74 315 74 296 c 2,32,-1
 74 129 l 2,33,34
 74 92 74 92 108 69 c 0,35,36
 121 62 121 62 139 59 c 2,37,-1
 327 59 l 1,38,-1
 327 60 l 1,39,-1
 328 60 l 1,40,-1
 328 90 l 1,20,-1
350 335 m 1,41,-1
 350 239 l 1,42,-1
 104 239 l 1,43,-1
 104 334 l 1,44,-1
 140 335 l 1,45,-1
 350 335 l 1,41,-1
310 273 m 1,46,-1
 310 301 l 1,47,-1
 160 301 l 1,48,-1
 160 273 l 1,49,-1
 310 273 l 1,46,-1
EndSplineSet
EndChar

StartChar: f
Encoding: 102 102 49
Width: 326
GlyphClass: 2
Flags: W
LayerCount: 2
Fore
SplineSet
308 562 m 1,0,-1
 308 422 l 1,1,-1
 193 422 l 1,2,-1
 193 387 l 1,3,-1
 194 387 l 1,4,-1
 194 349 l 1,5,-1
 279 349 l 1,6,-1
 279 209 l 1,7,-1
 194 209 l 1,8,-1
 194 3 l 1,9,-1
 54 3 l 1,10,-1
 54 209 l 1,11,-1
 18 209 l 1,12,-1
 18 349 l 1,13,-1
 54 349 l 1,14,-1
 54 437 l 2,15,16
 54 488 54 488 90.5 525 c 128,-1,17
 127 562 127 562 179 562 c 2,18,-1
 308 562 l 1,0,-1
138 331 m 1,19,-1
 138 478 l 1,20,-1
 252 478 l 1,21,-1
 252 506 l 1,22,-1
 179 506 l 2,23,24
 150 506 150 506 130 485.5 c 128,-1,25
 110 465 110 465 110 437 c 2,26,-1
 110 293 l 1,27,-1
 74 293 l 1,28,-1
 74 265 l 1,29,-1
 110 265 l 1,30,-1
 110 59 l 1,31,-1
 138 59 l 1,32,-1
 138 265 l 1,33,-1
 223 265 l 1,34,-1
 223 293 l 1,35,-1
 138 293 l 1,36,-1
 138 331 l 1,19,-1
EndSplineSet
EndChar

StartChar: g
Encoding: 103 103 50
Width: 456
GlyphClass: 2
Flags: W
LayerCount: 2
Fore
SplineSet
143 422 m 2,0,-1
 438 422 l 1,1,-1
 438 -65 l 2,2,3
 438 -117 438 -117 401 -153.5 c 128,-1,4
 364 -190 364 -190 313 -190 c 2,5,-1
 158 -190 l 1,6,-1
 158 -68 l 1,7,8
 206 -68 206 -68 228.5 -67 c 128,-1,9
 251 -66 251 -66 298 -66 c 1,10,-1
 298 3 l 1,11,12
 251 3 251 3 158 3 c 128,-1,13
 65 3 65 3 18 3 c 1,14,-1
 18 90 l 1,15,-1
 18 228 l 1,16,-1
 18 280 l 2,17,18
 18 282 18 282 18 285 c 0,19,20
 19 344 19 344 52 383 c 128,-1,21
 85 422 85 422 143 422 c 2,0,-1
296 282 m 1,22,-1
 159 282 l 1,23,-1
 159 145 l 1,24,-1
 296 145 l 1,25,-1
 296 282 l 1,22,-1
74 59 m 1,26,-1
 179 59 l 1,27,-1
 183 59 l 1,28,-1
 354 59 l 1,29,-1
 354 -55 l 1,30,-1
 354 -108 l 1,31,-1
 200 -108 l 1,32,-1
 200 -136 l 1,33,-1
 313 -136 l 2,34,35
 325 -136 325 -136 336.5 -131.5 c 128,-1,36
 348 -127 348 -127 356.5 -119.5 c 128,-1,37
 365 -112 365 -112 371.5 -102 c 128,-1,38
 378 -92 378 -92 380 -80 c 0,39,40
 382 -73 382 -73 382 -65 c 2,41,-1
 382 366 l 1,42,-1
 143 366 l 2,43,44
 120 366 120 366 104 354.5 c 128,-1,45
 88 343 88 343 81 325 c 128,-1,46
 74 307 74 307 74 284 c 0,47,48
 74 276 74 276 74 266.5 c 128,-1,49
 74 257 74 257 74 245.5 c 128,-1,50
 74 234 74 234 74 228 c 2,51,-1
 74 90 l 1,52,-1
 74 59 l 1,26,-1
352 338 m 1,53,-1
 352 89 l 1,54,-1
 103 89 l 1,55,-1
 103 338 l 1,56,-1
 352 338 l 1,53,-1
EndSplineSet
EndChar

StartChar: h
Encoding: 104 104 51
Width: 455
GlyphClass: 2
Flags: W
LayerCount: 2
Fore
SplineSet
18 703 m 1,0,-1
 158 703 l 1,1,-1
 158 419 l 1,2,-1
 313 419 l 2,3,4
 364 419 364 419 400.5 382.5 c 128,-1,5
 437 346 437 346 437 294 c 2,6,-1
 437 2 l 1,7,-1
 298 2 l 1,8,9
 298 48 298 48 298 140.5 c 128,-1,10
 298 233 298 233 298 279 c 1,11,-1
 158 279 l 1,12,-1
 158 2 l 1,13,-1
 18 2 l 1,14,-1
 18 703 l 1,0,-1
74 648 m 1,15,-1
 74 58 l 1,16,-1
 102 58 l 1,17,-1
 102 335 l 1,18,-1
 354 335 l 1,19,20
 354 289 354 289 353.5 196.5 c 128,-1,21
 353 104 353 104 353 58 c 1,22,-1
 381 58 l 1,23,-1
 381 294 l 2,24,25
 381 323 381 323 361 343 c 128,-1,26
 341 363 341 363 313 363 c 2,27,-1
 102 363 l 1,28,-1
 102 648 l 1,29,-1
 74 648 l 1,15,-1
EndSplineSet
EndChar

StartChar: i
Encoding: 105 105 52
AltUni2: 0000ef.ffffffff.0 0000ee.ffffffff.0 0000ed.ffffffff.0 0000ec.ffffffff.0 0000ef.ffffffff.0 0000ee.ffffffff.0 0000ed.ffffffff.0 0000ec.ffffffff.0
Width: 176
GlyphClass: 2
Flags: W
LayerCount: 2
Fore
SplineSet
18 2 m 1,0,-1
 18 422 l 1,1,-1
 158 422 l 1,2,-1
 158 2 l 1,3,-1
 18 2 l 1,0,-1
74 367 m 1,4,-1
 74 58 l 1,5,-1
 102 58 l 1,6,-1
 102 367 l 1,7,-1
 74 367 l 1,4,-1
18 562 m 1,8,-1
 158 562 l 1,9,-1
 158 463 l 1,10,-1
 18 463 l 1,11,-1
 18 562 l 1,8,-1
106 497 m 1,12,-1
 106 528 l 1,13,-1
 69 528 l 1,14,-1
 69 497 l 1,15,-1
 106 497 l 1,12,-1
EndSplineSet
EndChar

StartChar: j
Encoding: 106 106 53
Width: 316
GlyphClass: 2
Flags: W
LayerCount: 2
Fore
SplineSet
158 422 m 1,0,-1
 298 422 l 1,1,2
 298 350 298 350 298 178.5 c 128,-1,3
 298 7 298 7 298 -65 c 0,4,5
 298 -117 298 -117 261 -153.5 c 128,-1,6
 224 -190 224 -190 173 -190 c 2,7,-1
 18 -190 l 1,8,-1
 18 -51 l 1,9,10
 65 -51 65 -51 88 -51 c 128,-1,11
 111 -51 111 -51 158 -51 c 1,12,-1
 158 5 l 2,13,14
 158 65 158 65 158 213.5 c 128,-1,15
 158 362 158 362 158 422 c 1,0,-1
242 -65 m 0,16,17
 242 88 242 88 242 367 c 1,18,-1
 214 367 l 1,19,20
 214 187 214 187 214 5 c 2,21,-1
 214 -107 l 1,22,-1
 158 -107 l 2,23,24
 136 -107 136 -107 74 -107 c 1,25,-1
 74 -135 l 1,26,-1
 177 -135 l 1,27,-1
 180 -134 l 2,28,29
 193 -133 193 -133 204.5 -126.5 c 128,-1,30
 216 -120 216 -120 224 -111 c 128,-1,31
 232 -102 232 -102 237 -90 c 128,-1,32
 242 -78 242 -78 242 -65 c 0,16,17
297 562 m 1,33,-1
 297 463 l 1,34,-1
 158 463 l 1,35,-1
 158 562 l 1,36,-1
 297 562 l 1,33,-1
246 497 m 1,37,-1
 246 528 l 1,38,-1
 209 528 l 1,39,-1
 209 497 l 1,40,-1
 246 497 l 1,37,-1
EndSplineSet
EndChar

StartChar: k
Encoding: 107 107 54
Width: 455
GlyphClass: 2
Flags: W
LayerCount: 2
Fore
SplineSet
18 703 m 1,0,-1
 158 703 l 1,1,-1
 158 286 l 1,2,-1
 298 286 l 1,3,4
 298 309 298 309 298 354.5 c 128,-1,5
 298 400 298 400 298 422 c 1,6,-1
 437 422 l 1,7,-1
 437 271 l 2,8,9
 437 261 437 261 433.5 249.5 c 128,-1,10
 430 238 430 238 423.5 227.5 c 128,-1,11
 417 217 417 217 409 212 c 1,12,13
 421 206 421 206 429 191 c 128,-1,14
 437 176 437 176 437 161 c 2,15,-1
 437 3 l 1,16,-1
 298 3 l 1,17,-1
 298 9 l 1,18,-1
 298 146 l 1,19,-1
 158 146 l 1,20,-1
 158 2 l 1,21,-1
 18 2 l 1,22,-1
 18 703 l 1,0,-1
74 648 m 1,23,-1
 74 58 l 1,24,-1
 102 58 l 1,25,-1
 102 202 l 1,26,27
 145 202 145 202 228.5 202.5 c 128,-1,28
 312 203 312 203 354 203 c 1,29,-1
 354 59 l 1,30,-1
 381 59 l 1,31,-1
 381 186 l 2,32,33
 381 189 381 189 379 192.5 c 128,-1,34
 377 196 377 196 374 199 c 128,-1,35
 371 202 371 202 367.5 204.5 c 128,-1,36
 364 207 364 207 361 209 c 128,-1,37
 358 211 358 211 355 211 c 1,38,39
 362 213 362 213 371.5 221 c 128,-1,40
 381 229 381 229 381 236 c 2,41,-1
 381 367 l 1,42,-1
 354 367 l 1,43,-1
 354 230 l 1,44,-1
 102 230 l 1,45,-1
 102 648 l 1,46,-1
 74 648 l 1,23,-1
EndSplineSet
EndChar

StartChar: l
Encoding: 108 108 55
Width: 176
GlyphClass: 2
Flags: W
LayerCount: 2
Fore
SplineSet
18 702 m 1,0,-1
 158 702 l 1,1,-1
 158 1 l 1,2,-1
 18 1 l 1,3,-1
 18 702 l 1,0,-1
102 56 m 1,4,-1
 102 646 l 1,5,-1
 74 646 l 1,6,-1
 74 56 l 1,7,-1
 102 56 l 1,4,-1
EndSplineSet
EndChar

StartChar: m
Encoding: 109 109 56
Width: 731
GlyphClass: 2
Flags: W
LayerCount: 2
Fore
SplineSet
712 309 m 2,0,-1
 713 295 l 1,1,-1
 713 1 l 1,2,-1
 571 1 l 1,3,4
 571 48 571 48 572 140.5 c 128,-1,5
 573 233 573 233 573 280 c 1,6,-1
 436 280 l 1,7,-1
 436 1 l 1,8,-1
 295 1 l 1,9,-1
 295 280 l 1,10,-1
 159 280 l 1,11,12
 159 233 159 233 159 140.5 c 128,-1,13
 159 48 159 48 159 1 c 1,14,-1
 18 1 l 1,15,-1
 18 295 l 2,16,17
 18 346 18 346 54.5 383 c 128,-1,18
 91 420 91 420 143 420 c 2,19,-1
 311 420 l 2,20,21
 340 420 340 420 365 407 c 1,22,23
 391 420 391 420 420 420 c 2,24,-1
 587 420 l 2,25,26
 635 420 635 420 670.5 388 c 128,-1,27
 706 356 706 356 712 309 c 2,0,-1
627 56 m 1,28,-1
 657 56 l 1,29,-1
 657 299 l 1,30,-1
 656 303 l 2,31,32
 653 329 653 329 633.5 346.5 c 128,-1,33
 614 364 614 364 587 364 c 2,34,-1
 420 364 l 2,35,36
 404 364 404 364 390 357 c 2,37,-1
 365 345 l 1,38,-1
 341 357 l 2,39,40
 327 364 327 364 311 364 c 2,41,-1
 143 364 l 2,42,43
 117 364 117 364 97 346.5 c 128,-1,44
 77 329 77 329 74 303 c 2,45,-1
 74 56 l 1,46,-1
 102 56 l 1,47,48
 102 103 102 103 102 196 c 128,-1,49
 102 289 102 289 102 336 c 1,50,-1
 351 336 l 1,51,-1
 351 56 l 1,52,-1
 380 56 l 1,53,-1
 380 336 l 1,54,-1
 628 336 l 1,55,-1
 628 84 l 1,56,-1
 627 84 l 1,57,-1
 627 56 l 1,28,-1
EndSplineSet
EndChar

StartChar: n
Encoding: 110 110 57
AltUni2: 0000f1.ffffffff.0 0000f1.ffffffff.0
Width: 454
GlyphClass: 2
Flags: W
LayerCount: 2
Fore
SplineSet
158 280 m 1,0,1
 158 233 158 233 158 140 c 128,-1,2
 158 47 158 47 158 1 c 1,3,-1
 18 1 l 1,4,-1
 18 420 l 1,5,-1
 311 420 l 2,6,7
 360 420 360 420 398 384 c 128,-1,8
 436 348 436 348 436 300 c 2,9,-1
 436 1 l 1,10,-1
 295 1 l 1,11,12
 295 48 295 48 295.5 140.5 c 128,-1,13
 296 233 296 233 296 280 c 1,14,-1
 158 280 l 1,0,1
351 84 m 1,15,-1
 351 56 l 1,16,-1
 380 56 l 1,17,-1
 380 299 l 1,18,-1
 380 303 l 2,19,20
 378 320 378 320 368 334 c 128,-1,21
 358 348 358 348 343 356 c 128,-1,22
 328 364 328 364 311 364 c 2,23,-1
 74 364 l 1,24,-1
 74 56 l 1,25,-1
 103 56 l 1,26,-1
 103 84 l 1,27,-1
 102 84 l 1,28,-1
 102 336 l 1,29,-1
 352 336 l 1,30,-1
 352 84 l 1,31,-1
 351 84 l 1,15,-1
EndSplineSet
EndChar

StartChar: o
Encoding: 111 111 58
AltUni2: 0000f8.ffffffff.0 0000f6.ffffffff.0 0000f5.ffffffff.0 0000f4.ffffffff.0 0000f3.ffffffff.0 0000f2.ffffffff.0 0000f8.ffffffff.0 0000f6.ffffffff.0 0000f5.ffffffff.0 0000f4.ffffffff.0 0000f3.ffffffff.0 0000f2.ffffffff.0
Width: 455
GlyphClass: 2
Flags: W
LayerCount: 2
Fore
SplineSet
313 418 m 2,0,1
 364 418 364 418 400.5 381 c 128,-1,2
 437 344 437 344 437 293 c 2,3,-1
 437 125 l 2,4,5
 437 74 437 74 400.5 37.5 c 128,-1,6
 364 1 364 1 313 1 c 2,7,-1
 143 1 l 2,8,9
 91 1 91 1 54.5 37.5 c 128,-1,10
 18 74 18 74 18 125 c 2,11,-1
 18 293 l 2,12,13
 18 344 18 344 54.5 381 c 128,-1,14
 91 418 91 418 143 418 c 2,15,-1
 313 418 l 2,0,1
381 125 m 2,16,-1
 381 293 l 2,17,18
 381 321 381 321 361 341.5 c 128,-1,19
 341 362 341 362 313 362 c 2,20,-1
 143 362 l 2,21,22
 114 362 114 362 94 341.5 c 128,-1,23
 74 321 74 321 74 293 c 2,24,-1
 74 125 l 2,25,26
 74 107 74 107 83 91 c 128,-1,27
 92 75 92 75 108 65.5 c 128,-1,28
 124 56 124 56 143 56 c 2,29,-1
 313 56 l 2,30,31
 341 56 341 56 361 76.5 c 128,-1,32
 381 97 381 97 381 125 c 2,16,-1
102 84 m 1,33,-1
 102 334 l 1,34,-1
 354 334 l 1,35,-1
 354 84 l 1,36,-1
 102 84 l 1,33,-1
158 278 m 1,37,-1
 158 140 l 1,38,-1
 298 140 l 1,39,-1
 298 278 l 1,40,-1
 158 278 l 1,37,-1
EndSplineSet
EndChar

StartChar: p
Encoding: 112 112 59
Width: 455
GlyphClass: 2
Flags: W
LayerCount: 2
Fore
SplineSet
313 418 m 2,0,1
 364 418 364 418 400.5 381 c 128,-1,2
 437 344 437 344 437 293 c 2,3,-1
 437 125 l 2,4,5
 437 74 437 74 400.5 37.5 c 128,-1,6
 364 1 364 1 313 1 c 2,7,-1
 158 1 l 1,8,-1
 158 -141 l 1,9,-1
 18 -141 l 1,10,-1
 18 418 l 1,11,-1
 313 418 l 2,0,1
381 125 m 2,12,-1
 381 293 l 2,13,14
 381 311 381 311 372 327 c 128,-1,15
 363 343 363 343 347 352.5 c 128,-1,16
 331 362 331 362 313 362 c 2,17,-1
 74 362 l 1,18,-1
 74 -85 l 1,19,-1
 102 -85 l 1,20,-1
 102 56 l 1,21,-1
 313 56 l 2,22,23
 341 56 341 56 361 76.5 c 128,-1,24
 381 97 381 97 381 125 c 2,12,-1
102 84 m 1,25,-1
 102 334 l 1,26,-1
 354 334 l 1,27,-1
 354 84 l 1,28,-1
 102 84 l 1,25,-1
158 278 m 1,29,-1
 158 140 l 1,30,-1
 298 140 l 1,31,-1
 298 278 l 1,32,-1
 158 278 l 1,29,-1
EndSplineSet
EndChar

StartChar: q
Encoding: 113 113 60
Width: 455
GlyphClass: 2
Flags: W
LayerCount: 2
Fore
SplineSet
313 418 m 2,0,1
 364 418 364 418 400.5 381 c 128,-1,2
 437 344 437 344 437 293 c 2,3,-1
 437 -127 l 1,4,-1
 426 -127 l 2,5,6
 402 -127 402 -127 383.5 -125.5 c 128,-1,7
 365 -124 365 -124 351.5 -120 c 128,-1,8
 338 -116 338 -116 328.5 -112.5 c 128,-1,9
 319 -109 319 -109 313 -100 c 128,-1,10
 307 -91 307 -91 304 -85.5 c 128,-1,11
 301 -80 301 -80 299.5 -66 c 128,-1,12
 298 -52 298 -52 298 -44 c 128,-1,13
 298 -36 298 -36 298 -17 c 2,14,-1
 298 1 l 1,15,-1
 143 1 l 2,16,17
 91 1 91 1 54.5 37.5 c 128,-1,18
 18 74 18 74 18 125 c 2,19,-1
 18 293 l 2,20,21
 18 344 18 344 54.5 381 c 128,-1,22
 91 418 91 418 143 418 c 2,23,-1
 313 418 l 2,0,1
381 -69 m 1,24,-1
 381 293 l 2,25,26
 381 311 381 311 372 327 c 128,-1,27
 363 343 363 343 347 352.5 c 128,-1,28
 331 362 331 362 313 362 c 2,29,-1
 143 362 l 2,30,31
 114 362 114 362 94 341.5 c 128,-1,32
 74 321 74 321 74 293 c 2,33,-1
 74 125 l 2,34,35
 74 107 74 107 83 91 c 128,-1,36
 92 75 92 75 108 65.5 c 128,-1,37
 124 56 124 56 143 56 c 2,38,-1
 354 56 l 1,39,-1
 354 -17 l 2,40,41
 354 -55 354 -55 356 -63 c 1,42,43
 363 -67 363 -67 381 -69 c 1,24,-1
102 84 m 1,44,-1
 102 334 l 1,45,-1
 354 334 l 1,46,-1
 354 84 l 1,47,-1
 102 84 l 1,44,-1
158 278 m 1,48,-1
 158 140 l 1,49,-1
 298 140 l 1,50,-1
 298 278 l 1,51,-1
 158 278 l 1,48,-1
EndSplineSet
EndChar

StartChar: r
Encoding: 114 114 61
Width: 454
GlyphClass: 2
Flags: W
LayerCount: 2
Fore
SplineSet
158 280 m 1,0,-1
 158 140 l 1,1,-1
 158 1 l 1,2,-1
 18 1 l 1,3,-1
 18 295 l 1,4,-1
 19 309 l 2,5,6
 24 356 24 356 59.5 388 c 128,-1,7
 95 420 95 420 143 420 c 2,8,-1
 311 420 l 2,9,10
 362 420 362 420 399 383.5 c 128,-1,11
 436 347 436 347 436 295 c 2,12,-1
 436 280 l 1,13,14
 428 280 428 280 303 280 c 0,15,16
 280 280 280 280 158 280 c 1,0,-1
276 336 m 0,17,18
 280 336 280 336 310 336 c 0,19,20
 347 336 347 336 366 336 c 1,21,22
 345 364 345 364 311 364 c 2,23,-1
 143 364 l 2,24,25
 117 364 117 364 97 346.5 c 128,-1,26
 77 329 77 329 74 303 c 2,27,-1
 74 299 l 1,28,-1
 74 56 l 1,29,-1
 103 56 l 1,30,-1
 103 84 l 1,31,-1
 102 84 l 1,32,-1
 102 336 l 1,33,-1
 158 336 l 2,34,35
 172 336 172 336 212.5 336 c 128,-1,36
 253 336 253 336 276 336 c 0,17,18
EndSplineSet
EndChar

StartChar: s
Encoding: 115 115 62
Width: 456
GlyphClass: 2
Flags: W
LayerCount: 2
Fore
SplineSet
158 280 m 1,0,-1
 158 242 l 1,1,-1
 438 242 l 1,2,3
 438 223 438 223 437.5 184 c 128,-1,4
 437 145 437 145 437 125 c 0,5,6
 437 74 437 74 400.5 37 c 128,-1,7
 364 0 364 0 313 0 c 2,8,-1
 18 0 l 1,9,-1
 18 141 l 1,10,11
 65 141 65 141 158 140.5 c 128,-1,12
 251 140 251 140 298 140 c 1,13,-1
 298 175 l 1,14,-1
 18 175 l 1,15,-1
 18 295 l 2,16,17
 18 347 18 347 54.5 383.5 c 128,-1,18
 91 420 91 420 143 420 c 2,19,-1
 313 420 l 1,20,-1
 438 420 l 1,21,-1
 438 280 l 1,22,-1
 437 280 l 2,23,24
 398 280 398 280 348 280 c 128,-1,25
 298 280 298 280 247 280 c 128,-1,26
 196 280 196 280 158 280 c 1,0,-1
382 336 m 1,27,-1
 382 364 l 1,28,29
 342 364 342 364 262.5 364 c 128,-1,30
 183 364 183 364 143 364 c 0,31,32
 114 364 114 364 94 343.5 c 128,-1,33
 74 323 74 323 74 295 c 2,34,-1
 74 201 l 1,35,-1
 354 201 l 1,36,-1
 354 84 l 1,37,-1
 298 84 l 2,38,39
 254 84 254 84 172 84.5 c 128,-1,40
 90 85 90 85 74 85 c 1,41,-1
 74 56 l 1,42,-1
 313 56 l 2,43,44
 341 56 341 56 361 76.5 c 128,-1,45
 381 97 381 97 381 125 c 2,46,-1
 381 217 l 1,47,48
 350 217 350 217 102 218 c 1,49,-1
 102 336 l 1,50,-1
 180 336 l 2,51,52
 201 336 201 336 272 335.5 c 128,-1,53
 343 335 343 335 382 336 c 1,27,-1
EndSplineSet
EndChar

StartChar: t
Encoding: 116 116 63
Width: 308
GlyphClass: 2
Flags: W
LayerCount: 2
Fore
SplineSet
194 140 m 1,0,-1
 290 140 l 1,1,-1
 290 1 l 1,2,-1
 54 1 l 1,3,-1
 54 280 l 1,4,-1
 18 280 l 1,5,-1
 18 420 l 1,6,-1
 54 420 l 1,7,-1
 54 561 l 1,8,-1
 194 561 l 1,9,-1
 194 420 l 1,10,-1
 279 420 l 1,11,-1
 279 280 l 1,12,-1
 194 280 l 1,13,-1
 194 140 l 1,0,-1
110 56 m 1,14,-1
 234 56 l 1,15,-1
 234 84 l 1,16,-1
 138 84 l 1,17,-1
 138 336 l 1,18,-1
 223 336 l 1,19,-1
 223 364 l 1,20,-1
 138 364 l 1,21,-1
 138 505 l 1,22,-1
 110 505 l 1,23,-1
 110 364 l 1,24,-1
 74 364 l 1,25,-1
 74 336 l 1,26,-1
 110 336 l 1,27,-1
 110 56 l 1,14,-1
EndSplineSet
EndChar

StartChar: u
Encoding: 117 117 64
AltUni2: 0000fc.ffffffff.0 0000fb.ffffffff.0 0000fa.ffffffff.0 0000f9.ffffffff.0 0000fc.ffffffff.0 0000fb.ffffffff.0 0000fa.ffffffff.0 0000f9.ffffffff.0
Width: 455
GlyphClass: 2
Flags: W
LayerCount: 2
Fore
SplineSet
158 140 m 1,0,-1
 298 140 l 1,1,-1
 298 418 l 1,2,-1
 437 418 l 1,3,-1
 437 125 l 2,4,5
 437 74 437 74 400.5 37.5 c 128,-1,6
 364 1 364 1 313 1 c 2,7,-1
 143 1 l 2,8,9
 91 1 91 1 54.5 37.5 c 128,-1,10
 18 74 18 74 18 125 c 2,11,-1
 18 418 l 1,12,-1
 158 418 l 1,13,-1
 158 140 l 1,0,-1
102 362 m 1,14,-1
 74 362 l 1,15,-1
 74 125 l 2,16,17
 74 107 74 107 83 91 c 128,-1,18
 92 75 92 75 108 65.5 c 128,-1,19
 124 56 124 56 143 56 c 2,20,-1
 313 56 l 2,21,22
 341 56 341 56 361 76.5 c 128,-1,23
 381 97 381 97 381 125 c 2,24,-1
 381 362 l 1,25,-1
 354 362 l 1,26,-1
 354 84 l 1,27,-1
 102 84 l 1,28,-1
 102 362 l 1,14,-1
EndSplineSet
EndChar

StartChar: v
Encoding: 118 118 65
Width: 455
GlyphClass: 2
Flags: W
LayerCount: 2
Fore
SplineSet
298 420 m 1,0,-1
 437 420 l 1,1,-1
 437 280 l 1,2,-1
 298 1 l 1,3,-1
 297 1 l 1,4,-1
 158 1 l 1,5,-1
 157 3 l 1,6,-1
 18 280 l 1,7,-1
 18 420 l 1,8,-1
 158 420 l 1,9,-1
 158 280 l 1,10,-1
 228 141 l 1,11,-1
 298 280 l 1,12,-1
 298 420 l 1,0,-1
381 284 m 1,13,-1
 381 364 l 1,14,-1
 353 364 l 1,15,-1
 353 280 l 1,16,-1
 253 79 l 1,17,-1
 202 79 l 1,18,-1
 102 280 l 1,19,-1
 102 364 l 1,20,-1
 74 364 l 1,21,-1
 74 280 l 1,22,-1
 189 51 l 1,23,-1
 266 51 l 1,24,-1
 381 280 l 1,25,-1
 381 284 l 1,13,-1
EndSplineSet
EndChar

StartChar: w
Encoding: 119 119 66
Width: 735
GlyphClass: 2
Flags: W
LayerCount: 2
Fore
SplineSet
717 280 m 1,0,-1
 578 1 l 1,1,-1
 438 1 l 1,2,-1
 368 141 l 1,3,-1
 298 1 l 1,4,-1
 297 1 l 1,5,-1
 158 1 l 1,6,-1
 157 3 l 1,7,-1
 18 280 l 1,8,-1
 18 420 l 1,9,-1
 158 420 l 1,10,-1
 158 280 l 1,11,-1
 228 141 l 1,12,-1
 298 280 l 1,13,-1
 438 280 l 1,14,-1
 507 141 l 1,15,-1
 577 280 l 1,16,-1
 577 420 l 1,17,-1
 717 420 l 1,18,-1
 717 280 l 1,0,-1
216 51 m 1,19,-1
 265 51 l 1,20,-1
 347 214 l 1,21,-1
 388 214 l 1,22,-1
 470 51 l 1,23,-1
 547 51 l 1,24,-1
 662 280 l 1,25,-1
 662 364 l 1,26,-1
 634 364 l 1,27,-1
 634 280 l 1,28,-1
 533 79 l 1,29,-1
 483 79 l 1,30,-1
 402 242 l 1,31,-1
 333 242 l 1,32,-1
 252 79 l 1,33,-1
 202 79 l 1,34,-1
 101 280 l 1,35,-1
 101 364 l 1,36,-1
 73 364 l 1,37,-1
 73 280 l 1,38,-1
 188 51 l 1,39,-1
 216 51 l 1,19,-1
EndSplineSet
EndChar

StartChar: x
Encoding: 120 120 67
Width: 456
GlyphClass: 2
Flags: W
LayerCount: 2
Fore
SplineSet
438 420 m 1,0,-1
 298 210 l 1,1,-1
 438 1 l 1,2,-1
 298 1 l 1,3,-1
 228 106 l 1,4,-1
 158 1 l 1,5,-1
 18 1 l 1,6,-1
 158 210 l 1,7,-1
 18 420 l 1,8,-1
 158 420 l 1,9,-1
 228 315 l 1,10,-1
 298 420 l 1,11,-1
 438 420 l 1,0,-1
354 45 m 1,12,-1
 244 210 l 1,13,-1
 354 375 l 1,14,-1
 322 375 l 1,15,-1
 228 234 l 1,16,-1
 134 375 l 1,17,-1
 102 375 l 1,18,-1
 212 210 l 1,19,-1
 102 45 l 1,20,-1
 134 45 l 1,21,-1
 228 186 l 1,22,-1
 322 45 l 1,23,-1
 354 45 l 1,12,-1
EndSplineSet
EndChar

StartChar: y
Encoding: 121 121 68
AltUni2: 0000ff.ffffffff.0 0000fd.ffffffff.0 0000ff.ffffffff.0 0000fd.ffffffff.0
Width: 456
GlyphClass: 2
Flags: W
LayerCount: 2
Fore
SplineSet
18 420 m 1,0,-1
 159 420 l 1,1,2
 159 388 159 388 158.5 280.5 c 128,-1,3
 158 173 158 173 158 142 c 1,4,-1
 299 142 l 1,5,6
 299 173 299 173 298.5 280.5 c 128,-1,7
 298 388 298 388 298 420 c 1,8,-1
 438 420 l 1,9,-1
 438 -69 l 2,10,11
 438 -121 438 -121 401 -157.5 c 128,-1,12
 364 -194 364 -194 313 -194 c 2,13,-1
 158 -194 l 1,14,-1
 158 -72 l 1,15,16
 206 -72 206 -72 228.5 -71 c 128,-1,17
 251 -70 251 -70 298 -70 c 1,18,-1
 298 1 l 1,19,20
 251 1 251 1 158 1.5 c 128,-1,21
 65 2 65 2 18 2 c 1,22,-1
 18 219 l 1,23,-1
 18 420 l 1,0,-1
74 364 m 1,24,-1
 74 140 l 1,25,-1
 74 138 l 1,26,-1
 74 57 l 1,27,-1
 179 57 l 1,28,-1
 183 57 l 1,29,-1
 354 57 l 1,30,-1
 354 -111 l 1,31,32
 344 -111 344 -111 284.5 -110.5 c 128,-1,33
 225 -110 225 -110 215 -111 c 0,34,35
 215 -115 215 -115 214.5 -124 c 128,-1,36
 214 -133 214 -133 214 -138 c 1,37,-1
 317 -138 l 1,38,-1
 321 -138 l 2,39,40
 346 -135 346 -135 364 -115 c 128,-1,41
 382 -95 382 -95 382 -69 c 2,42,-1
 382 364 l 1,43,-1
 354 364 l 1,44,45
 354 345 354 345 354.5 265 c 128,-1,46
 355 185 355 185 355 142 c 2,47,-1
 355 86 l 1,48,-1
 102 86 l 1,49,-1
 102 142 l 2,50,51
 102 174 102 174 102 212 c 128,-1,52
 102 250 102 250 102.5 293.5 c 128,-1,53
 103 337 103 337 103 364 c 1,54,-1
 74 364 l 1,24,-1
EndSplineSet
EndChar

StartChar: z
Encoding: 122 122 69
Width: 457
GlyphClass: 2
Flags: W
LayerCount: 2
Fore
SplineSet
439 420 m 1,0,-1
 439 280 l 1,1,-1
 224 280 l 1,2,-1
 439 150 l 1,3,-1
 439 1 l 1,4,-1
 18 1 l 1,5,-1
 18 140 l 1,6,-1
 224 140 l 1,7,-1
 18 264 l 1,8,-1
 18 420 l 1,9,-1
 439 420 l 1,0,-1
383 336 m 1,10,-1
 383 364 l 1,11,-1
 74 364 l 1,12,-1
 74 350 l 1,13,-1
 74 288 l 1,14,-1
 355 115 l 1,15,-1
 355 84 l 1,16,-1
 74 84 l 1,17,-1
 74 56 l 1,18,-1
 383 56 l 1,19,-1
 383 60 l 1,20,-1
 383 126 l 1,21,-1
 102 304 l 1,22,-1
 102 336 l 1,23,-1
 383 336 l 1,10,-1
EndSplineSet
EndChar

StartChar: less
Encoding: 60 60 72
Width: 597
Flags: W
LayerCount: 2
Fore
SplineSet
598.375976562 268.0703125 m 5,0,-1
 599.190429688 124.400390625 l 5,1,-1
 -94.4169921875 287.146484375 l 5,2,-1
 -95.53515625 484.321289062 l 5,3,-1
 596.038085938 680.255859375 l 5,4,-1
 596.84765625 537.576171875 l 5,5,-1
 76.4345703125 390.3359375 l 5,6,-1
 598.375976562 268.0703125 l 5,0,-1
-39.171875 331.081054688 m 5,7,-1
 543.299804688 194.41015625 l 5,8,-1
 543.13671875 223.14453125 l 5,9,-1
 -11.552734375 353.543945312 l 5,10,-1
 -11.9404296875 421.912109375 l 5,11,-1
 541.119140625 578.852539062 l 5,12,-1
 540.956054688 607.586914062 l 5,13,-1
 -39.806640625 443.044921875 l 5,14,-1
 -39.171875 331.081054688 l 5,7,-1
EndSplineSet
EndChar

StartChar: greater
Encoding: 62 62 73
Width: 597
Flags: W
LayerCount: 2
Fore
SplineSet
-4.3759765625 268.0703125 m 5,0,-1
 -5.1904296875 124.400390625 l 5,1,-1
 688.416992188 287.146484375 l 5,2,-1
 689.53515625 484.321289062 l 5,3,-1
 -2.0380859375 680.255859375 l 5,4,-1
 -2.84765625 537.576171875 l 5,5,-1
 517.565429688 390.3359375 l 5,6,-1
 -4.3759765625 268.0703125 l 5,0,-1
633.171875 331.081054688 m 5,7,-1
 50.7001953125 194.41015625 l 5,8,-1
 50.86328125 223.14453125 l 5,9,-1
 605.552734375 353.543945312 l 5,10,-1
 605.940429688 421.912109375 l 5,11,-1
 52.880859375 578.852539062 l 5,12,-1
 53.0439453125 607.586914062 l 5,13,-1
 633.806640625 443.044921875 l 5,14,-1
 633.171875 331.081054688 l 5,7,-1
EndSplineSet
EndChar
